<svg xmlns="http://www.w3.org/2000/svg" xmlns:xlink="http://www.w3.org/1999/xlink" width="1240" viewBox="0 0 930 344.999992" height="460" preserveAspectRatio="xMidYMid meet"><defs><filter x="0%" y="0%" width="100%" height="100%" id="c3289a2449"></filter><linearGradient x1="0" gradientTransform="matrix(0.75, 0, 0, 0.75, 0.0000114565, 0)" y1="0" x2="1239.999948" gradientUnits="userSpaceOnUse" y2="0" id="22c643c1d1"><stop stop-opacity="1" stop-color="rgb(99.598694%, 54.899597%, 0%)" offset="0"></stop><stop stop-opacity="1" stop-color="rgb(99.589539%, 54.766846%, 0%)" offset="0.0078125"></stop><stop stop-opacity="1" stop-color="rgb(99.572754%, 54.504395%, 0%)" offset="0.015625"></stop><stop stop-opacity="1" stop-color="rgb(99.554443%, 54.240417%, 0%)" offset="0.0234375"></stop><stop stop-opacity="1" stop-color="rgb(99.536133%, 53.977966%, 0%)" offset="0.03125"></stop><stop stop-opacity="1" stop-color="rgb(99.517822%, 53.713989%, 0%)" offset="0.0390625"></stop><stop stop-opacity="1" stop-color="rgb(99.499512%, 53.451538%, 0%)" offset="0.046875"></stop><stop stop-opacity="1" stop-color="rgb(99.482727%, 53.187561%, 0%)" offset="0.0546875"></stop><stop stop-opacity="1" stop-color="rgb(99.464417%, 52.923584%, 0%)" offset="0.0625"></stop><stop stop-opacity="1" stop-color="rgb(99.446106%, 52.661133%, 0%)" offset="0.0703125"></stop><stop stop-opacity="1" stop-color="rgb(99.427795%, 52.397156%, 0%)" offset="0.078125"></stop><stop stop-opacity="1" stop-color="rgb(99.411011%, 52.134705%, 0%)" offset="0.0859375"></stop><stop stop-opacity="1" stop-color="rgb(99.3927%, 51.870728%, 0%)" offset="0.09375"></stop><stop stop-opacity="1" stop-color="rgb(99.37439%, 51.608276%, 0%)" offset="0.101562"></stop><stop stop-opacity="1" stop-color="rgb(99.356079%, 51.344299%, 0%)" offset="0.109375"></stop><stop stop-opacity="1" stop-color="rgb(99.337769%, 51.081848%, 0%)" offset="0.117188"></stop><stop stop-opacity="1" stop-color="rgb(99.320984%, 50.817871%, 0%)" offset="0.125"></stop><stop stop-opacity="1" stop-color="rgb(99.302673%, 50.55542%, 0%)" offset="0.132812"></stop><stop stop-opacity="1" stop-color="rgb(99.284363%, 50.291443%, 0%)" offset="0.140625"></stop><stop stop-opacity="1" stop-color="rgb(99.266052%, 50.027466%, 0%)" offset="0.148438"></stop><stop stop-opacity="1" stop-color="rgb(99.249268%, 49.765015%, 0%)" offset="0.15625"></stop><stop stop-opacity="1" stop-color="rgb(99.230957%, 49.501038%, 0%)" offset="0.164062"></stop><stop stop-opacity="1" stop-color="rgb(99.212646%, 49.238586%, 0%)" offset="0.171875"></stop><stop stop-opacity="1" stop-color="rgb(99.194336%, 48.974609%, 0%)" offset="0.179688"></stop><stop stop-opacity="1" stop-color="rgb(99.177551%, 48.712158%, 0%)" offset="0.1875"></stop><stop stop-opacity="1" stop-color="rgb(99.159241%, 48.448181%, 0%)" offset="0.195312"></stop><stop stop-opacity="1" stop-color="rgb(99.14093%, 48.18573%, 0%)" offset="0.203125"></stop><stop stop-opacity="1" stop-color="rgb(99.12262%, 47.921753%, 0%)" offset="0.210938"></stop><stop stop-opacity="1" stop-color="rgb(99.104309%, 47.659302%, 0%)" offset="0.21875"></stop><stop stop-opacity="1" stop-color="rgb(99.087524%, 47.395325%, 0%)" offset="0.226562"></stop><stop stop-opacity="1" stop-color="rgb(99.069214%, 47.131348%, 0%)" offset="0.234375"></stop><stop stop-opacity="1" stop-color="rgb(99.050903%, 46.868896%, 0%)" offset="0.242188"></stop><stop stop-opacity="1" stop-color="rgb(99.032593%, 46.604919%, 0%)" offset="0.25"></stop><stop stop-opacity="1" stop-color="rgb(99.015808%, 46.342468%, 0%)" offset="0.257812"></stop><stop stop-opacity="1" stop-color="rgb(98.997498%, 46.078491%, 0%)" offset="0.265625"></stop><stop stop-opacity="1" stop-color="rgb(98.979187%, 45.81604%, 0%)" offset="0.273438"></stop><stop stop-opacity="1" stop-color="rgb(98.960876%, 45.552063%, 0%)" offset="0.28125"></stop><stop stop-opacity="1" stop-color="rgb(98.942566%, 45.289612%, 0%)" offset="0.289062"></stop><stop stop-opacity="1" stop-color="rgb(98.925781%, 45.025635%, 0%)" offset="0.296875"></stop><stop stop-opacity="1" stop-color="rgb(98.907471%, 44.763184%, 0%)" offset="0.304688"></stop><stop stop-opacity="1" stop-color="rgb(98.88916%, 44.499207%, 0%)" offset="0.3125"></stop><stop stop-opacity="1" stop-color="rgb(98.87085%, 44.235229%, 0%)" offset="0.320312"></stop><stop stop-opacity="1" stop-color="rgb(98.854065%, 43.972778%, 0%)" offset="0.328125"></stop><stop stop-opacity="1" stop-color="rgb(98.835754%, 43.708801%, 0%)" offset="0.335938"></stop><stop stop-opacity="1" stop-color="rgb(98.817444%, 43.44635%, 0%)" offset="0.34375"></stop><stop stop-opacity="1" stop-color="rgb(98.799133%, 43.182373%, 0%)" offset="0.351562"></stop><stop stop-opacity="1" stop-color="rgb(98.780823%, 42.919922%, 0%)" offset="0.359375"></stop><stop stop-opacity="1" stop-color="rgb(98.764038%, 42.655945%, 0%)" offset="0.367188"></stop><stop stop-opacity="1" stop-color="rgb(98.745728%, 42.393494%, 0%)" offset="0.375"></stop><stop stop-opacity="1" stop-color="rgb(98.727417%, 42.129517%, 0%)" offset="0.382812"></stop><stop stop-opacity="1" stop-color="rgb(98.709106%, 41.867065%, 0%)" offset="0.390625"></stop><stop stop-opacity="1" stop-color="rgb(98.692322%, 41.603088%, 0%)" offset="0.398438"></stop><stop stop-opacity="1" stop-color="rgb(98.674011%, 41.339111%, 0%)" offset="0.40625"></stop><stop stop-opacity="1" stop-color="rgb(98.655701%, 41.07666%, 0%)" offset="0.414062"></stop><stop stop-opacity="1" stop-color="rgb(98.63739%, 40.812683%, 0%)" offset="0.421875"></stop><stop stop-opacity="1" stop-color="rgb(98.61908%, 40.550232%, 0%)" offset="0.429688"></stop><stop stop-opacity="1" stop-color="rgb(98.602295%, 40.286255%, 0%)" offset="0.4375"></stop><stop stop-opacity="1" stop-color="rgb(98.583984%, 40.023804%, 0%)" offset="0.445312"></stop><stop stop-opacity="1" stop-color="rgb(98.565674%, 39.759827%, 0%)" offset="0.453125"></stop><stop stop-opacity="1" stop-color="rgb(98.547363%, 39.497375%, 0%)" offset="0.460938"></stop><stop stop-opacity="1" stop-color="rgb(98.530579%, 39.233398%, 0%)" offset="0.46875"></stop><stop stop-opacity="1" stop-color="rgb(98.512268%, 38.970947%, 0%)" offset="0.476562"></stop><stop stop-opacity="1" stop-color="rgb(98.493958%, 38.70697%, 0%)" offset="0.484375"></stop><stop stop-opacity="1" stop-color="rgb(98.475647%, 38.442993%, 0%)" offset="0.492188"></stop><stop stop-opacity="1" stop-color="rgb(98.457336%, 38.180542%, 0%)" offset="0.5"></stop><stop stop-opacity="1" stop-color="rgb(98.440552%, 37.916565%, 0%)" offset="0.507812"></stop><stop stop-opacity="1" stop-color="rgb(98.422241%, 37.654114%, 0%)" offset="0.515625"></stop><stop stop-opacity="1" stop-color="rgb(98.403931%, 37.390137%, 0%)" offset="0.523438"></stop><stop stop-opacity="1" stop-color="rgb(98.38562%, 37.127686%, 0%)" offset="0.53125"></stop><stop stop-opacity="1" stop-color="rgb(98.368835%, 36.863708%, 0%)" offset="0.539062"></stop><stop stop-opacity="1" stop-color="rgb(98.350525%, 36.601257%, 0%)" offset="0.546875"></stop><stop stop-opacity="1" stop-color="rgb(98.332214%, 36.33728%, 0%)" offset="0.554688"></stop><stop stop-opacity="1" stop-color="rgb(98.313904%, 36.074829%, 0%)" offset="0.5625"></stop><stop stop-opacity="1" stop-color="rgb(98.295593%, 35.810852%, 0%)" offset="0.570312"></stop><stop stop-opacity="1" stop-color="rgb(98.278809%, 35.548401%, 0%)" offset="0.578125"></stop><stop stop-opacity="1" stop-color="rgb(98.260498%, 35.284424%, 0%)" offset="0.585938"></stop><stop stop-opacity="1" stop-color="rgb(98.242188%, 35.020447%, 0%)" offset="0.59375"></stop><stop stop-opacity="1" stop-color="rgb(98.223877%, 34.757996%, 0%)" offset="0.601562"></stop><stop stop-opacity="1" stop-color="rgb(98.207092%, 34.494019%, 0%)" offset="0.609375"></stop><stop stop-opacity="1" stop-color="rgb(98.188782%, 34.231567%, 0%)" offset="0.617188"></stop><stop stop-opacity="1" stop-color="rgb(98.170471%, 33.96759%, 0%)" offset="0.625"></stop><stop stop-opacity="1" stop-color="rgb(98.152161%, 33.705139%, 0%)" offset="0.632812"></stop><stop stop-opacity="1" stop-color="rgb(98.135376%, 33.441162%, 0%)" offset="0.640625"></stop><stop stop-opacity="1" stop-color="rgb(98.117065%, 33.178711%, 0%)" offset="0.648438"></stop><stop stop-opacity="1" stop-color="rgb(98.098755%, 32.914734%, 0%)" offset="0.65625"></stop><stop stop-opacity="1" stop-color="rgb(98.080444%, 32.652283%, 0%)" offset="0.664062"></stop><stop stop-opacity="1" stop-color="rgb(98.062134%, 32.388306%, 0%)" offset="0.671875"></stop><stop stop-opacity="1" stop-color="rgb(98.045349%, 32.124329%, 0%)" offset="0.679688"></stop><stop stop-opacity="1" stop-color="rgb(98.027039%, 31.861877%, 0%)" offset="0.6875"></stop><stop stop-opacity="1" stop-color="rgb(98.008728%, 31.5979%, 0%)" offset="0.695312"></stop><stop stop-opacity="1" stop-color="rgb(97.990417%, 31.335449%, 0%)" offset="0.703125"></stop><stop stop-opacity="1" stop-color="rgb(97.973633%, 31.071472%, 0%)" offset="0.710938"></stop><stop stop-opacity="1" stop-color="rgb(97.955322%, 30.809021%, 0%)" offset="0.71875"></stop><stop stop-opacity="1" stop-color="rgb(97.937012%, 30.545044%, 0%)" offset="0.726562"></stop><stop stop-opacity="1" stop-color="rgb(97.918701%, 30.282593%, 0%)" offset="0.734375"></stop><stop stop-opacity="1" stop-color="rgb(97.900391%, 30.018616%, 0%)" offset="0.742188"></stop><stop stop-opacity="1" stop-color="rgb(97.883606%, 29.756165%, 0%)" offset="0.75"></stop><stop stop-opacity="1" stop-color="rgb(97.865295%, 29.492188%, 0%)" offset="0.757812"></stop><stop stop-opacity="1" stop-color="rgb(97.846985%, 29.22821%, 0%)" offset="0.765625"></stop><stop stop-opacity="1" stop-color="rgb(97.828674%, 28.965759%, 0%)" offset="0.773438"></stop><stop stop-opacity="1" stop-color="rgb(97.81189%, 28.701782%, 0%)" offset="0.78125"></stop><stop stop-opacity="1" stop-color="rgb(97.793579%, 28.439331%, 0%)" offset="0.789062"></stop><stop stop-opacity="1" stop-color="rgb(97.775269%, 28.175354%, 0%)" offset="0.796875"></stop><stop stop-opacity="1" stop-color="rgb(97.756958%, 27.912903%, 0%)" offset="0.804688"></stop><stop stop-opacity="1" stop-color="rgb(97.738647%, 27.648926%, 0%)" offset="0.8125"></stop><stop stop-opacity="1" stop-color="rgb(97.721863%, 27.386475%, 0%)" offset="0.820312"></stop><stop stop-opacity="1" stop-color="rgb(97.703552%, 27.122498%, 0%)" offset="0.828125"></stop><stop stop-opacity="1" stop-color="rgb(97.685242%, 26.860046%, 0%)" offset="0.835938"></stop><stop stop-opacity="1" stop-color="rgb(97.666931%, 26.596069%, 0%)" offset="0.84375"></stop><stop stop-opacity="1" stop-color="rgb(97.650146%, 26.332092%, 0%)" offset="0.851562"></stop><stop stop-opacity="1" stop-color="rgb(97.631836%, 26.069641%, 0%)" offset="0.859375"></stop><stop stop-opacity="1" stop-color="rgb(97.613525%, 25.805664%, 0%)" offset="0.867188"></stop><stop stop-opacity="1" stop-color="rgb(97.595215%, 25.543213%, 0%)" offset="0.875"></stop><stop stop-opacity="1" stop-color="rgb(97.576904%, 25.279236%, 0%)" offset="0.882812"></stop><stop stop-opacity="1" stop-color="rgb(97.56012%, 25.016785%, 0%)" offset="0.890625"></stop><stop stop-opacity="1" stop-color="rgb(97.541809%, 24.752808%, 0%)" offset="0.898438"></stop><stop stop-opacity="1" stop-color="rgb(97.523499%, 24.490356%, 0%)" offset="0.90625"></stop><stop stop-opacity="1" stop-color="rgb(97.505188%, 24.226379%, 0%)" offset="0.914062"></stop><stop stop-opacity="1" stop-color="rgb(97.488403%, 23.963928%, 0%)" offset="0.921875"></stop><stop stop-opacity="1" stop-color="rgb(97.470093%, 23.699951%, 0%)" offset="0.929688"></stop><stop stop-opacity="1" stop-color="rgb(97.451782%, 23.435974%, 0%)" offset="0.9375"></stop><stop stop-opacity="1" stop-color="rgb(97.433472%, 23.173523%, 0%)" offset="0.945312"></stop><stop stop-opacity="1" stop-color="rgb(97.415161%, 22.909546%, 0%)" offset="0.953125"></stop><stop stop-opacity="1" stop-color="rgb(97.398376%, 22.647095%, 0%)" offset="0.960938"></stop><stop stop-opacity="1" stop-color="rgb(97.380066%, 22.383118%, 0%)" offset="0.96875"></stop><stop stop-opacity="1" stop-color="rgb(97.361755%, 22.120667%, 0%)" offset="0.976562"></stop><stop stop-opacity="1" stop-color="rgb(97.343445%, 21.856689%, 0%)" offset="0.984375"></stop><stop stop-opacity="1" stop-color="rgb(97.32666%, 21.594238%, 0%)" offset="0.992188"></stop><stop stop-opacity="1" stop-color="rgb(97.30835%, 21.330261%, 0%)" offset="1"></stop></linearGradient><mask id="5c7a77f6d2"><g filter="url(#c3289a2449)"><rect x="-93" width="1116" fill="#000000" y="-34.499999" height="413.99999" fill-opacity="0.749"></rect></g></mask><clipPath id="62b152c26b"><path d="M 0 17 L 68 17 L 68 101 L 0 101 Z M 0 17 " clip-rule="nonzero"></path></clipPath><clipPath id="d4781d119c"><path d="M 237 17 L 311.089844 17 L 311.089844 101 L 237 101 Z M 237 17 " clip-rule="nonzero"></path></clipPath><clipPath id="8c51d4ba5b"><path d="M 34 0 L 109 0 L 109 29 L 34 29 Z M 34 0 " clip-rule="nonzero"></path></clipPath><clipPath id="5715830abc"><path d="M 115 0 L 190 0 L 190 29 L 115 29 Z M 115 0 " clip-rule="nonzero"></path></clipPath><clipPath id="a19ea7b7f2"><path d="M 115 89 L 190 89 L 190 172.175781 L 115 172.175781 Z M 115 89 " clip-rule="nonzero"></path></clipPath><clipPath id="39a2742828"><path d="M 196 0 L 271 0 L 271 29 L 196 29 Z M 196 0 " clip-rule="nonzero"></path></clipPath><clipPath id="42ac85bfd3"><rect x="0" width="312" y="0" height="174"></rect></clipPath><mask id="3402476395"><g filter="url(#c3289a2449)"><rect x="-93" width="1116" fill="#000000" y="-34.499999" height="413.99999" fill-opacity="0.6"></rect></g></mask><clipPath id="df265f5d88"><path d="M 0.523438 145 L 75 145 L 75 223 L 0.523438 223 Z M 0.523438 145 " clip-rule="nonzero"></path></clipPath><clipPath id="678c3fcba1"><path d="M 81 145 L 156 145 L 156 223 L 81 223 Z M 81 145 " clip-rule="nonzero"></path></clipPath><clipPath id="41a6fb281c"><path d="M 162 145 L 237 145 L 237 223 L 162 223 Z M 162 145 " clip-rule="nonzero"></path></clipPath><clipPath id="836d1477c7"><path d="M 243 145 L 317.773438 145 L 317.773438 223 L 243 223 Z M 243 145 " clip-rule="nonzero"></path></clipPath><clipPath id="ef6f906afd"><path d="M 162 1.019531 L 237 1.019531 L 237 84 L 162 84 Z M 162 1.019531 " clip-rule="nonzero"></path></clipPath><clipPath id="70edb3424e"><path d="M 122 216 L 197 216 L 197 223 L 122 223 Z M 122 216 " clip-rule="nonzero"></path></clipPath><clipPath id="813118134a"><rect x="0" width="318" y="0" height="223"></rect></clipPath><clipPath id="895d81dff0"><path d="M 0 167.390625 L 6 167.390625 L 6 176 L 0 176 Z M 0 167.390625 " clip-rule="nonzero"></path></clipPath><clipPath id="eab17a0227"><path d="M 921 0 L 929.777344 0 L 929.777344 14 L 921 14 Z M 921 0 " clip-rule="nonzero"></path></clipPath><clipPath id="c581ccdafd"><path d="M 921 16 L 929.777344 16 L 929.777344 30 L 921 30 Z M 921 16 " clip-rule="nonzero"></path></clipPath><clipPath id="05ca0b6f13"><path d="M 921 33 L 929.777344 33 L 929.777344 47 L 921 47 Z M 921 33 " clip-rule="nonzero"></path></clipPath><clipPath id="592965e001"><path d="M 922 50 L 929.777344 50 L 929.777344 63 L 922 63 Z M 922 50 " clip-rule="nonzero"></path></clipPath><clipPath id="f310bdc49b"><path d="M 922 67 L 929.777344 67 L 929.777344 80 L 922 80 Z M 922 67 " clip-rule="nonzero"></path></clipPath><clipPath id="4205b21d39"><path d="M 922 83 L 929.777344 83 L 929.777344 96 L 922 96 Z M 922 83 " clip-rule="nonzero"></path></clipPath><clipPath id="d322cdfe93"><path d="M 923 101 L 929.777344 101 L 929.777344 113 L 923 113 Z M 923 101 " clip-rule="nonzero"></path></clipPath><clipPath id="780d33a244"><path d="M 923 118 L 929.777344 118 L 929.777344 129 L 923 129 Z M 923 118 " clip-rule="nonzero"></path></clipPath><clipPath id="78af5de8ea"><path d="M 923 135 L 929.777344 135 L 929.777344 145 L 923 145 Z M 923 135 " clip-rule="nonzero"></path></clipPath><clipPath id="3090ca590c"><path d="M 924 153 L 929.777344 153 L 929.777344 162 L 924 162 Z M 924 153 " clip-rule="nonzero"></path></clipPath><clipPath id="a4ea5b873f"><path d="M 924 169 L 929.777344 169 L 929.777344 177.597656 L 924 177.597656 Z M 924 169 " clip-rule="nonzero"></path></clipPath><clipPath id="4df5cd132f"><path d="M 743.988281 4 L 746 4 L 746 7 L 743.988281 7 Z M 743.988281 4 " clip-rule="nonzero"></path></clipPath></defs><rect x="-93" width="1116" fill="#ffffff" y="-34.499999" height="413.99999" fill-opacity="1"></rect><rect x="-93" width="1116" fill="#ffffff" y="-34.499999" height="413.99999" fill-opacity="1"></rect><rect x="-93" fill="url(#22c643c1d1)" width="1116" y="-34.499999" height="413.99999"></rect><g mask="url(#5c7a77f6d2)"><g transform="matrix(1, 0, 0, 1, 0, 0)"><g clip-path="url(#42ac85bfd3)"><g clip-path="url(#62b152c26b)"><path fill="#f7980f" d="M 2.613281 77.5 L 30.511719 91.445312 C 30.710938 91.542969 30.953125 91.542969 31.152344 91.445312 L 59.050781 77.5 C 59.292969 77.378906 59.445312 77.132812 59.445312 76.867188 L 59.445312 41.105469 C 59.445312 40.835938 59.292969 40.589844 59.050781 40.46875 L 31.152344 26.523438 C 30.953125 26.425781 30.710938 26.425781 30.511719 26.523438 L 2.613281 40.46875 C 2.371094 40.589844 2.21875 40.835938 2.21875 41.105469 L 2.21875 76.867188 C 2.21875 77.132812 2.371094 77.378906 2.613281 77.5 Z M 30.832031 100.328125 C 29.886719 100.328125 28.9375 100.101562 28.09375 99.679688 L -2.785156 84.246094 C -4.871094 83.207031 -6.167969 81.109375 -6.167969 78.773438 L -6.167969 39.195312 C -6.167969 36.863281 -4.871094 34.769531 -2.785156 33.722656 L 28.09375 18.289062 C 29.785156 17.445312 31.875 17.445312 33.570312 18.289062 L 64.449219 33.722656 C 66.535156 34.769531 67.832031 36.863281 67.832031 39.195312 L 67.832031 78.773438 C 67.832031 81.109375 66.535156 83.199219 64.449219 84.246094 L 33.570312 99.679688 C 32.722656 100.101562 31.777344 100.328125 30.832031 100.328125 " fill-opacity="1" fill-rule="nonzero"></path></g><path fill="#fbbf09" d="M 83.703125 77.5 L 111.605469 91.445312 C 111.800781 91.542969 112.042969 91.542969 112.238281 91.445312 L 140.136719 77.5 C 140.382812 77.378906 140.53125 77.132812 140.53125 76.867188 L 140.53125 41.105469 C 140.53125 40.835938 140.382812 40.589844 140.136719 40.46875 L 112.238281 26.523438 C 112.042969 26.425781 111.800781 26.425781 111.605469 26.523438 L 83.703125 40.46875 C 83.460938 40.589844 83.308594 40.835938 83.308594 41.105469 L 83.308594 76.867188 C 83.308594 77.132812 83.460938 77.378906 83.703125 77.5 Z M 111.921875 100.328125 C 110.976562 100.328125 110.03125 100.101562 109.183594 99.679688 L 78.304688 84.246094 C 76.21875 83.207031 74.921875 81.109375 74.921875 78.773438 L 74.921875 39.195312 C 74.921875 36.863281 76.21875 34.769531 78.304688 33.722656 L 109.183594 18.289062 C 110.875 17.445312 112.964844 17.445312 114.65625 18.289062 L 145.539062 33.722656 C 147.625 34.769531 148.917969 36.863281 148.917969 39.195312 L 148.917969 78.773438 C 148.917969 81.109375 147.625 83.199219 145.539062 84.246094 L 114.65625 99.679688 C 113.8125 100.101562 112.867188 100.328125 111.921875 100.328125 " fill-opacity="1" fill-rule="nonzero"></path><path fill="#fbbf09" d="M 164.792969 77.5 L 192.691406 91.445312 C 192.890625 91.542969 193.132812 91.542969 193.328125 91.445312 L 221.226562 77.5 C 221.472656 77.378906 221.621094 77.132812 221.621094 76.867188 L 221.621094 41.105469 C 221.621094 40.835938 221.472656 40.589844 221.226562 40.46875 L 193.328125 26.523438 C 193.132812 26.425781 192.890625 26.425781 192.691406 26.523438 L 164.792969 40.46875 C 164.550781 40.589844 164.398438 40.835938 164.398438 41.105469 L 164.398438 76.867188 C 164.398438 77.132812 164.550781 77.378906 164.792969 77.5 Z M 193.007812 100.328125 C 192.066406 100.328125 191.117188 100.101562 190.269531 99.679688 L 159.394531 84.246094 C 157.304688 83.207031 156.011719 81.109375 156.011719 78.773438 L 156.011719 39.195312 C 156.011719 36.863281 157.304688 34.769531 159.394531 33.722656 L 190.277344 18.289062 C 191.964844 17.445312 194.054688 17.445312 195.746094 18.289062 L 226.625 33.722656 C 228.714844 34.769531 230.007812 36.863281 230.007812 39.195312 L 230.007812 78.773438 C 230.007812 81.109375 228.714844 83.199219 226.625 84.246094 L 195.746094 99.679688 C 194.898438 100.101562 193.957031 100.328125 193.007812 100.328125 " fill-opacity="1" fill-rule="nonzero"></path><g clip-path="url(#d4781d119c)"><path fill="#f7980f" d="M 245.882812 77.5 L 273.78125 91.445312 C 273.980469 91.542969 274.222656 91.542969 274.421875 91.445312 L 302.316406 77.5 C 302.5625 77.378906 302.710938 77.132812 302.710938 76.867188 L 302.710938 41.105469 C 302.710938 40.835938 302.5625 40.589844 302.316406 40.46875 L 274.421875 26.523438 C 274.222656 26.425781 273.980469 26.425781 273.78125 26.523438 L 245.882812 40.46875 C 245.640625 40.589844 245.488281 40.835938 245.488281 41.105469 L 245.488281 76.867188 C 245.488281 77.132812 245.640625 77.378906 245.882812 77.5 Z M 274.097656 100.328125 C 273.15625 100.328125 272.207031 100.101562 271.363281 99.679688 L 240.480469 84.246094 C 238.394531 83.207031 237.101562 81.109375 237.101562 78.773438 L 237.101562 39.195312 C 237.101562 36.863281 238.394531 34.769531 240.480469 33.722656 L 271.363281 18.289062 C 273.054688 17.445312 275.144531 17.445312 276.835938 18.289062 L 307.714844 33.722656 C 309.800781 34.769531 311.097656 36.863281 311.097656 39.195312 L 311.097656 78.773438 C 311.097656 81.109375 309.800781 83.199219 307.714844 84.246094 L 276.835938 99.679688 C 275.988281 100.101562 275.046875 100.328125 274.097656 100.328125 " fill-opacity="1" fill-rule="nonzero"></path></g><g clip-path="url(#8c51d4ba5b)"><path fill="#fbbf09" d="M 43.300781 5.601562 L 71.203125 19.546875 C 71.402344 19.644531 71.640625 19.644531 71.839844 19.546875 L 99.738281 5.601562 C 99.980469 5.476562 100.132812 5.234375 100.132812 4.964844 L 100.132812 -30.796875 C 100.132812 -31.066406 99.980469 -31.308594 99.738281 -31.433594 L 71.839844 -45.375 C 71.640625 -45.476562 71.402344 -45.476562 71.203125 -45.375 L 43.300781 -31.433594 C 43.058594 -31.308594 42.910156 -31.066406 42.910156 -30.796875 L 42.910156 4.964844 C 42.910156 5.234375 43.058594 5.476562 43.300781 5.601562 Z M 71.519531 28.425781 C 70.574219 28.425781 69.628906 28.203125 68.78125 27.78125 L 37.90625 12.34375 C 35.816406 11.300781 34.523438 9.207031 34.523438 6.871094 L 34.523438 -32.703125 C 34.523438 -35.039062 35.816406 -37.132812 37.90625 -38.175781 L 68.785156 -53.609375 C 70.472656 -54.457031 72.566406 -54.457031 74.257812 -53.609375 L 105.136719 -38.175781 C 107.222656 -37.132812 108.519531 -35.039062 108.519531 -32.703125 L 108.519531 6.871094 C 108.519531 9.207031 107.222656 11.300781 105.136719 12.34375 L 74.257812 27.78125 C 73.410156 28.203125 72.464844 28.425781 71.519531 28.425781 " fill-opacity="1" fill-rule="nonzero"></path></g><g clip-path="url(#5715830abc)"><path fill="#f7980f" d="M 124.390625 5.601562 L 152.292969 19.546875 C 152.488281 19.644531 152.730469 19.644531 152.929688 19.546875 L 180.828125 5.601562 C 181.070312 5.476562 181.222656 5.234375 181.222656 4.964844 L 181.222656 -30.796875 C 181.222656 -31.066406 181.070312 -31.308594 180.828125 -31.433594 L 152.929688 -45.375 C 152.730469 -45.476562 152.488281 -45.476562 152.292969 -45.375 L 124.390625 -31.433594 C 124.148438 -31.308594 124 -31.066406 124 -30.796875 L 124 4.964844 C 124 5.234375 124.148438 5.476562 124.390625 5.601562 Z M 152.609375 28.425781 C 151.664062 28.425781 150.71875 28.203125 149.875 27.78125 L 118.992188 12.34375 C 116.90625 11.300781 115.609375 9.207031 115.609375 6.871094 L 115.609375 -32.703125 C 115.609375 -35.039062 116.90625 -37.132812 118.992188 -38.175781 L 149.875 -53.609375 C 151.5625 -54.457031 153.65625 -54.457031 155.34375 -53.609375 L 186.226562 -38.175781 C 188.3125 -37.132812 189.609375 -35.039062 189.609375 -32.703125 L 189.609375 6.871094 C 189.609375 9.207031 188.3125 11.300781 186.226562 12.34375 L 155.34375 27.78125 C 154.5 28.203125 153.554688 28.425781 152.609375 28.425781 " fill-opacity="1" fill-rule="nonzero"></path></g><g clip-path="url(#a19ea7b7f2)"><path fill="#f7980f" d="M 124.390625 149.339844 L 152.292969 163.28125 C 152.488281 163.382812 152.730469 163.382812 152.929688 163.28125 L 180.828125 149.339844 C 181.070312 149.21875 181.222656 148.972656 181.222656 148.703125 L 181.222656 112.941406 C 181.222656 112.671875 181.070312 112.425781 180.828125 112.304688 L 152.929688 98.363281 C 152.730469 98.261719 152.488281 98.261719 152.292969 98.363281 L 124.390625 112.304688 C 124.148438 112.425781 124 112.671875 124 112.941406 L 124 148.703125 C 124 148.972656 124.148438 149.21875 124.390625 149.339844 Z M 152.609375 172.164062 C 151.664062 172.164062 150.71875 171.9375 149.875 171.515625 L 118.992188 156.082031 C 116.90625 155.042969 115.609375 152.941406 115.609375 150.613281 L 115.609375 111.03125 C 115.609375 108.703125 116.90625 106.601562 118.992188 105.5625 L 149.875 90.128906 C 151.5625 89.285156 153.65625 89.285156 155.34375 90.125 L 186.226562 105.5625 C 188.3125 106.601562 189.609375 108.703125 189.609375 111.03125 L 189.609375 150.613281 C 189.609375 152.941406 188.3125 155.042969 186.226562 156.082031 L 155.34375 171.519531 C 154.5 171.9375 153.554688 172.164062 152.609375 172.164062 " fill-opacity="1" fill-rule="nonzero"></path></g><g clip-path="url(#39a2742828)"><path fill="#fbbf09" d="M 205.484375 5.601562 L 233.382812 19.546875 C 233.582031 19.644531 233.820312 19.644531 234.019531 19.546875 L 261.917969 5.601562 C 262.160156 5.476562 262.3125 5.234375 262.3125 4.964844 L 262.3125 -30.796875 C 262.3125 -31.066406 262.160156 -31.308594 261.917969 -31.433594 L 234.019531 -45.375 C 233.820312 -45.476562 233.582031 -45.476562 233.382812 -45.375 L 205.484375 -31.433594 C 205.238281 -31.308594 205.089844 -31.066406 205.089844 -30.796875 L 205.089844 4.964844 C 205.089844 5.234375 205.238281 5.476562 205.484375 5.601562 Z M 233.699219 28.425781 C 232.753906 28.425781 231.808594 28.203125 230.960938 27.78125 L 200.082031 12.34375 C 197.996094 11.300781 196.703125 9.207031 196.703125 6.871094 L 196.703125 -32.703125 C 196.703125 -35.039062 197.996094 -37.132812 200.082031 -38.175781 L 230.960938 -53.609375 C 232.652344 -54.457031 234.742188 -54.457031 236.433594 -53.609375 L 267.316406 -38.175781 C 269.402344 -37.132812 270.699219 -35.039062 270.699219 -32.703125 L 270.699219 6.871094 C 270.699219 9.207031 269.402344 11.300781 267.316406 12.34375 L 236.433594 27.78125 C 235.589844 28.203125 234.644531 28.425781 233.699219 28.425781 " fill-opacity="1" fill-rule="nonzero"></path></g></g></g></g><g mask="url(#3402476395)"><g transform="matrix(1, 0, 0, 1, 612, 122)"><g clip-path="url(#813118134a)"><g clip-path="url(#df265f5d88)"><path fill="#f7980f" d="M 9.292969 204.84375 L 37.195312 218.792969 C 37.394531 218.886719 37.632812 218.886719 37.832031 218.792969 L 65.730469 204.84375 C 65.976562 204.722656 66.125 204.476562 66.125 204.210938 L 66.125 168.449219 C 66.125 168.179688 65.976562 167.933594 65.730469 167.8125 L 37.832031 153.867188 C 37.632812 153.769531 37.394531 153.769531 37.195312 153.867188 L 9.292969 167.8125 C 9.054688 167.933594 8.902344 168.179688 8.902344 168.449219 L 8.902344 204.210938 C 8.902344 204.476562 9.054688 204.722656 9.292969 204.84375 Z M 37.511719 227.671875 C 36.566406 227.671875 35.621094 227.449219 34.777344 227.023438 L 3.898438 211.589844 C 1.808594 210.550781 0.515625 208.453125 0.515625 206.117188 L 0.515625 166.539062 C 0.515625 164.207031 1.808594 162.113281 3.898438 161.066406 L 34.777344 145.632812 C 36.464844 144.789062 38.558594 144.789062 40.25 145.632812 L 71.128906 161.066406 C 73.214844 162.113281 74.511719 164.207031 74.511719 166.539062 L 74.511719 206.117188 C 74.511719 208.453125 73.214844 210.546875 71.128906 211.589844 L 40.25 227.023438 C 39.402344 227.449219 38.457031 227.671875 37.511719 227.671875 " fill-opacity="1" fill-rule="nonzero"></path></g><g clip-path="url(#678c3fcba1)"><path fill="#fbbf09" d="M 90.386719 204.84375 L 118.285156 218.792969 C 118.484375 218.886719 118.722656 218.886719 118.921875 218.792969 L 146.820312 204.84375 C 147.0625 204.722656 147.214844 204.476562 147.214844 204.210938 L 147.214844 168.449219 C 147.214844 168.179688 147.0625 167.933594 146.820312 167.8125 L 118.921875 153.867188 C 118.722656 153.769531 118.484375 153.769531 118.285156 153.867188 L 90.386719 167.8125 C 90.140625 167.933594 89.992188 168.179688 89.992188 168.449219 L 89.992188 204.210938 C 89.992188 204.476562 90.140625 204.722656 90.386719 204.84375 Z M 118.605469 227.671875 C 117.660156 227.671875 116.710938 227.449219 115.867188 227.023438 L 84.988281 211.589844 C 82.898438 210.550781 81.605469 208.453125 81.605469 206.117188 L 81.605469 166.539062 C 81.605469 164.207031 82.898438 162.113281 84.988281 161.066406 L 115.867188 145.632812 C 117.554688 144.789062 119.648438 144.789062 121.339844 145.632812 L 152.21875 161.066406 C 154.308594 162.113281 155.601562 164.207031 155.601562 166.539062 L 155.601562 206.117188 C 155.601562 208.453125 154.308594 210.546875 152.21875 211.589844 L 121.339844 227.023438 C 120.496094 227.449219 119.546875 227.671875 118.605469 227.671875 " fill-opacity="1" fill-rule="nonzero"></path></g><g clip-path="url(#41a6fb281c)"><path fill="#fbbf09" d="M 171.476562 204.84375 L 199.371094 218.792969 C 199.574219 218.886719 199.8125 218.886719 200.011719 218.792969 L 227.910156 204.84375 C 228.152344 204.722656 228.304688 204.476562 228.304688 204.210938 L 228.304688 168.449219 C 228.304688 168.179688 228.152344 167.933594 227.910156 167.8125 L 200.011719 153.867188 C 199.8125 153.769531 199.574219 153.769531 199.371094 153.867188 L 171.476562 167.8125 C 171.230469 167.933594 171.082031 168.179688 171.082031 168.449219 L 171.082031 204.210938 C 171.082031 204.476562 171.230469 204.722656 171.476562 204.84375 Z M 199.691406 227.671875 C 198.746094 227.671875 197.800781 227.449219 196.953125 227.023438 L 166.074219 211.589844 C 163.988281 210.550781 162.695312 208.453125 162.695312 206.117188 L 162.695312 166.539062 C 162.695312 164.207031 163.988281 162.113281 166.074219 161.066406 L 196.957031 145.632812 C 198.644531 144.789062 200.734375 144.789062 202.429688 145.632812 L 233.304688 161.066406 C 235.398438 162.113281 236.691406 164.207031 236.691406 166.539062 L 236.691406 206.117188 C 236.691406 208.453125 235.398438 210.546875 233.304688 211.589844 L 202.429688 227.023438 C 201.582031 227.449219 200.640625 227.671875 199.691406 227.671875 " fill-opacity="1" fill-rule="nonzero"></path></g><g clip-path="url(#836d1477c7)"><path fill="#f7980f" d="M 252.566406 204.84375 L 280.464844 218.792969 C 280.664062 218.886719 280.902344 218.886719 281.101562 218.792969 L 309 204.84375 C 309.246094 204.722656 309.394531 204.476562 309.394531 204.210938 L 309.394531 168.449219 C 309.394531 168.179688 309.246094 167.933594 309 167.8125 L 281.101562 153.867188 C 280.902344 153.769531 280.664062 153.769531 280.464844 153.867188 L 252.566406 167.8125 C 252.320312 167.933594 252.171875 168.179688 252.171875 168.449219 L 252.171875 204.210938 C 252.171875 204.476562 252.320312 204.722656 252.566406 204.84375 Z M 280.78125 227.671875 C 279.835938 227.671875 278.890625 227.449219 278.042969 227.023438 L 247.164062 211.589844 C 245.078125 210.550781 243.785156 208.453125 243.785156 206.117188 L 243.785156 166.539062 C 243.785156 164.207031 245.078125 162.113281 247.164062 161.066406 L 278.042969 145.632812 C 279.734375 144.789062 281.828125 144.789062 283.519531 145.632812 L 314.398438 161.066406 C 316.484375 162.113281 317.78125 164.207031 317.78125 166.539062 L 317.78125 206.117188 C 317.78125 208.453125 316.484375 210.546875 314.398438 211.589844 L 283.519531 227.023438 C 282.671875 227.449219 281.726562 227.671875 280.78125 227.671875 " fill-opacity="1" fill-rule="nonzero"></path></g><path fill="#fbbf09" d="M 49.984375 132.945312 L 77.882812 146.890625 C 78.082031 146.988281 78.324219 146.988281 78.523438 146.890625 L 106.421875 132.945312 C 106.664062 132.824219 106.816406 132.578125 106.816406 132.308594 L 106.816406 96.546875 C 106.816406 96.277344 106.664062 96.035156 106.421875 95.914062 L 78.519531 81.96875 C 78.324219 81.867188 78.082031 81.867188 77.882812 81.96875 L 49.984375 95.914062 C 49.742188 96.035156 49.589844 96.277344 49.589844 96.546875 L 49.589844 132.308594 C 49.589844 132.578125 49.742188 132.824219 49.984375 132.945312 Z M 78.203125 155.769531 C 77.257812 155.769531 76.308594 155.546875 75.464844 155.125 L 44.585938 139.691406 C 42.5 138.644531 41.203125 136.550781 41.203125 134.21875 L 41.203125 94.640625 C 41.203125 92.308594 42.5 90.210938 44.585938 89.167969 L 75.464844 73.734375 C 77.15625 72.886719 79.246094 72.886719 80.941406 73.734375 L 111.820312 89.167969 C 113.90625 90.210938 115.203125 92.308594 115.203125 94.640625 L 115.203125 134.21875 C 115.203125 136.550781 113.90625 138.644531 111.820312 139.691406 L 80.941406 155.125 C 80.09375 155.546875 79.148438 155.769531 78.203125 155.769531 " fill-opacity="1" fill-rule="nonzero"></path><path fill="#f7980f" d="M 131.074219 132.945312 L 158.972656 146.890625 C 159.171875 146.988281 159.410156 146.988281 159.613281 146.890625 L 187.507812 132.945312 C 187.753906 132.824219 187.902344 132.578125 187.902344 132.308594 L 187.902344 96.546875 C 187.902344 96.277344 187.753906 96.035156 187.507812 95.914062 L 159.613281 81.96875 C 159.410156 81.867188 159.171875 81.867188 158.976562 81.96875 L 131.074219 95.914062 C 130.832031 96.035156 130.679688 96.277344 130.679688 96.546875 L 130.679688 132.308594 C 130.679688 132.578125 130.832031 132.824219 131.074219 132.945312 Z M 159.289062 155.769531 C 158.34375 155.769531 157.398438 155.546875 156.554688 155.125 L 125.675781 139.691406 C 123.589844 138.644531 122.292969 136.550781 122.292969 134.21875 L 122.292969 94.640625 C 122.292969 92.308594 123.589844 90.210938 125.675781 89.167969 L 156.554688 73.734375 C 158.242188 72.886719 160.335938 72.886719 162.027344 73.734375 L 192.90625 89.167969 C 194.992188 90.210938 196.289062 92.308594 196.289062 94.640625 L 196.289062 134.21875 C 196.289062 136.550781 194.992188 138.644531 192.90625 139.691406 L 162.027344 155.125 C 161.183594 155.546875 160.238281 155.769531 159.289062 155.769531 " fill-opacity="1" fill-rule="nonzero"></path><g clip-path="url(#ef6f906afd)"><path fill="#fbbf09" d="M 171.476562 61.074219 L 199.371094 75.023438 C 199.574219 75.125 199.8125 75.125 200.011719 75.023438 L 227.910156 61.074219 C 228.152344 60.957031 228.304688 60.714844 228.304688 60.441406 L 228.304688 24.683594 C 228.304688 24.410156 228.152344 24.167969 227.910156 24.046875 L 200.011719 10.105469 C 199.8125 10.003906 199.574219 10.003906 199.371094 10.105469 L 171.476562 24.046875 C 171.230469 24.167969 171.082031 24.410156 171.082031 24.683594 L 171.082031 60.441406 C 171.082031 60.714844 171.230469 60.957031 171.476562 61.074219 Z M 199.691406 83.902344 C 198.746094 83.902344 197.800781 83.679688 196.953125 83.253906 L 166.074219 67.820312 C 163.988281 66.78125 162.695312 64.683594 162.695312 62.351562 L 162.695312 22.773438 C 162.695312 20.441406 163.988281 18.34375 166.074219 17.304688 L 196.957031 1.871094 C 198.644531 1.023438 200.734375 1.023438 202.429688 1.867188 L 233.304688 17.304688 C 235.398438 18.34375 236.691406 20.441406 236.691406 22.773438 L 236.691406 62.351562 C 236.691406 64.683594 235.398438 66.78125 233.304688 67.820312 L 202.429688 83.253906 C 201.582031 83.679688 200.640625 83.902344 199.691406 83.902344 " fill-opacity="1" fill-rule="nonzero"></path></g><g clip-path="url(#70edb3424e)"><path fill="#f7980f" d="M 131.074219 276.683594 L 158.972656 290.625 C 159.171875 290.726562 159.410156 290.726562 159.613281 290.625 L 187.507812 276.683594 C 187.753906 276.5625 187.902344 276.320312 187.902344 276.046875 L 187.902344 240.285156 C 187.902344 240.015625 187.753906 239.769531 187.507812 239.648438 L 159.613281 225.707031 C 159.410156 225.605469 159.171875 225.605469 158.976562 225.707031 L 131.074219 239.648438 C 130.832031 239.769531 130.679688 240.015625 130.679688 240.285156 L 130.679688 276.046875 C 130.679688 276.320312 130.832031 276.5625 131.074219 276.683594 Z M 159.289062 299.507812 C 158.34375 299.507812 157.398438 299.28125 156.554688 298.859375 L 125.675781 283.425781 C 123.589844 282.386719 122.292969 280.289062 122.292969 277.957031 L 122.292969 238.375 C 122.292969 236.046875 123.589844 233.949219 125.675781 232.90625 L 156.554688 217.472656 C 158.242188 216.628906 160.335938 216.628906 162.027344 217.46875 L 192.90625 232.90625 C 194.992188 233.949219 196.289062 236.046875 196.289062 238.375 L 196.289062 277.957031 C 196.289062 280.289062 194.992188 282.386719 192.90625 283.425781 L 162.027344 298.863281 C 161.183594 299.28125 160.238281 299.507812 159.289062 299.507812 " fill-opacity="1" fill-rule="nonzero"></path></g><path fill="#fbbf09" d="M 212.164062 132.945312 L 240.0625 146.890625 C 240.261719 146.988281 240.503906 146.988281 240.703125 146.890625 L 268.601562 132.945312 C 268.84375 132.824219 268.992188 132.578125 268.992188 132.308594 L 268.992188 96.546875 C 268.992188 96.277344 268.84375 96.035156 268.601562 95.914062 L 240.703125 81.96875 C 240.503906 81.867188 240.261719 81.867188 240.0625 81.96875 L 212.164062 95.914062 C 211.921875 96.035156 211.769531 96.277344 211.769531 96.546875 L 211.769531 132.308594 C 211.769531 132.578125 211.921875 132.824219 212.164062 132.945312 Z M 240.378906 155.769531 C 239.4375 155.769531 238.488281 155.546875 237.640625 155.125 L 206.765625 139.691406 C 204.679688 138.644531 203.382812 136.550781 203.382812 134.21875 L 203.382812 94.640625 C 203.382812 92.308594 204.679688 90.210938 206.765625 89.167969 L 237.640625 73.734375 C 239.335938 72.886719 241.425781 72.886719 243.117188 73.734375 L 273.996094 89.167969 C 276.082031 90.210938 277.382812 92.308594 277.382812 94.640625 L 277.382812 134.21875 C 277.382812 136.550781 276.082031 138.644531 273.996094 139.691406 L 243.117188 155.125 C 242.273438 155.546875 241.328125 155.769531 240.378906 155.769531 " fill-opacity="1" fill-rule="nonzero"></path></g></g></g><path fill="#fbb03b" d="M 18.398438 344.699219 C 18.109375 344.699219 17.535156 344.699219 17.25 344.699219 C 13.800781 344.699219 11.5 342.394531 11.5 338.9375 C 11.5 336.058594 13.511719 333.175781 16.097656 332.3125 C 18.972656 331.449219 22.136719 332.3125 23.859375 334.617188 C 25.585938 336.921875 25.585938 340.378906 24.148438 342.683594 C 23.285156 344.121094 22.136719 344.988281 20.410156 344.699219 C 19.546875 344.699219 18.972656 344.699219 18.398438 344.699219 Z M 18.398438 344.699219 " fill-opacity="1" fill-rule="nonzero"></path><path fill="#fbb03b" d="M 18.398438 328.566406 C 14.660156 328.566406 11.785156 325.398438 11.785156 321.941406 C 11.785156 318.484375 14.949219 315.316406 18.398438 315.316406 C 22.136719 315.316406 25.011719 318.484375 25.011719 321.941406 C 25.011719 325.6875 21.847656 328.566406 18.398438 328.566406 Z M 18.398438 328.566406 " fill-opacity="1" fill-rule="nonzero"></path><path fill="#fbb03b" d="M 35.074219 344.699219 C 30.761719 344.699219 28.460938 342.96875 28.171875 339.511719 C 27.886719 336.058594 29.898438 332.886719 33.347656 332.3125 C 36.796875 331.734375 39.960938 333.464844 40.824219 336.921875 C 41.398438 338.9375 41.109375 340.664062 40.246094 342.394531 C 39.097656 344.410156 37.085938 344.988281 35.074219 344.699219 Z M 35.074219 344.699219 " fill-opacity="1" fill-rule="nonzero"></path><path fill="#fbb03b" d="M 18.398438 299.1875 C 22.136719 299.1875 24.722656 301.777344 24.722656 305.523438 C 24.722656 309.269531 22.136719 311.859375 18.398438 311.859375 C 14.660156 311.859375 12.074219 309.269531 12.074219 305.523438 C 12.074219 301.777344 14.660156 299.1875 18.398438 299.1875 Z M 18.398438 299.1875 " fill-opacity="1" fill-rule="nonzero"></path><path fill="#fbb03b" d="M 41.109375 321.941406 C 41.109375 325.398438 38.523438 328.28125 34.785156 328.28125 C 31.335938 328.28125 28.460938 325.6875 28.460938 321.941406 C 28.460938 318.484375 31.046875 315.605469 34.785156 315.605469 C 38.234375 315.605469 41.109375 318.484375 41.109375 321.941406 Z M 41.109375 321.941406 " fill-opacity="1" fill-rule="nonzero"></path><path fill="#fbb03b" d="M 51.460938 344.699219 C 47.722656 344.699219 45.132812 342.105469 45.421875 338.648438 C 45.421875 335.191406 48.296875 332.601562 51.746094 332.601562 C 55.195312 332.601562 57.785156 335.480469 57.785156 338.9375 C 57.785156 342.105469 55.195312 344.699219 51.460938 344.699219 Z M 51.460938 344.699219 " fill-opacity="1" fill-rule="nonzero"></path><path fill="#fbb03b" d="M 24.148438 288.527344 C 24.148438 291.984375 21.5625 294.578125 18.109375 294.578125 C 14.660156 294.578125 12.074219 291.984375 12.074219 288.527344 C 12.074219 285.070312 14.660156 282.480469 18.109375 282.480469 C 21.5625 282.480469 24.148438 285.070312 24.148438 288.527344 Z M 24.148438 288.527344 " fill-opacity="1" fill-rule="nonzero"></path><path fill="#fbb03b" d="M 34.785156 311.285156 C 31.621094 311.285156 28.75 308.691406 28.75 305.523438 C 28.75 302.066406 31.335938 299.472656 34.785156 299.472656 C 37.949219 299.472656 40.824219 302.066406 40.824219 305.523438 C 40.824219 308.691406 38.234375 311.285156 34.785156 311.285156 Z M 34.785156 311.285156 " fill-opacity="1" fill-rule="nonzero"></path><path fill="#fbb03b" d="M 57.496094 321.941406 C 57.496094 325.109375 54.621094 327.992188 51.460938 327.992188 C 48.296875 327.992188 45.710938 325.109375 45.710938 321.941406 C 45.710938 318.773438 48.585938 315.894531 51.746094 315.894531 C 54.910156 316.179688 57.496094 318.773438 57.496094 321.941406 Z M 57.496094 321.941406 " fill-opacity="1" fill-rule="nonzero"></path><path fill="#fbb03b" d="M 68.421875 344.410156 C 65.257812 344.410156 62.671875 342.105469 62.671875 338.648438 C 62.671875 335.480469 64.96875 332.886719 68.421875 332.886719 C 71.871094 332.886719 74.171875 335.191406 74.171875 338.648438 C 74.171875 342.105469 71.582031 344.410156 68.421875 344.410156 Z M 68.421875 344.410156 " fill-opacity="1" fill-rule="nonzero"></path><path fill="#fbb03b" d="M 23.859375 271.820312 C 23.859375 274.988281 21.273438 277.582031 18.109375 277.582031 C 14.949219 277.582031 12.363281 274.988281 12.363281 271.820312 C 12.363281 268.652344 14.949219 266.058594 18.109375 266.058594 C 21.273438 266.058594 23.859375 268.652344 23.859375 271.820312 Z M 23.859375 271.820312 " fill-opacity="1" fill-rule="nonzero"></path><path fill="#fbb03b" d="M 0 338.074219 C 0 336.34375 0 334.617188 0 332.886719 C 0 331.734375 0.574219 331.449219 1.4375 331.449219 C 4.3125 331.449219 6.898438 333.464844 8.050781 336.058594 C 9.199219 338.648438 8.335938 342.105469 6.324219 343.835938 C 5.75 344.121094 5.175781 344.410156 4.601562 344.699219 C 3.449219 344.699219 2.300781 344.699219 1.148438 344.699219 C 0.289062 344.699219 0 344.410156 0 343.546875 C 0 341.53125 0 339.800781 0 338.074219 Z M 0 338.074219 " fill-opacity="1" fill-rule="nonzero"></path><path fill="#fbb03b" d="M 34.785156 294.289062 C 31.910156 294.289062 29.324219 291.695312 29.035156 288.816406 C 29.035156 285.648438 31.621094 283.054688 34.785156 283.054688 C 37.949219 283.054688 40.246094 285.648438 40.246094 288.816406 C 40.535156 291.695312 37.949219 294.289062 34.785156 294.289062 Z M 34.785156 294.289062 " fill-opacity="1" fill-rule="nonzero"></path><path fill="#fbb03b" d="M 0 321.941406 C 0 320.214844 0 318.199219 0 316.46875 C 0 315.316406 0.574219 315.027344 1.4375 315.027344 C 5.175781 315.027344 8.335938 318.199219 8.335938 321.941406 C 8.335938 325.6875 5.175781 328.855469 1.4375 328.855469 C 0.289062 328.855469 0 328.566406 0 327.414062 C 0 325.6875 0 323.671875 0 321.941406 Z M 0 321.941406 " fill-opacity="1" fill-rule="nonzero"></path><path fill="#fbb03b" d="M 56.921875 305.234375 C 56.921875 308.402344 54.621094 310.707031 51.460938 310.707031 C 48.296875 310.707031 45.996094 308.402344 45.996094 305.234375 C 45.996094 302.066406 48.296875 299.761719 51.460938 299.761719 C 54.621094 299.761719 56.921875 302.066406 56.921875 305.234375 Z M 56.921875 305.234375 " fill-opacity="1" fill-rule="nonzero"></path><path fill="#fbb03b" d="M 73.882812 321.941406 C 73.882812 325.109375 71.582031 327.414062 68.421875 327.414062 C 65.257812 327.414062 62.957031 325.109375 62.957031 321.941406 C 62.957031 319.0625 65.257812 316.46875 68.421875 316.46875 C 71.582031 316.46875 73.882812 318.773438 73.882812 321.941406 Z M 73.882812 321.941406 " fill-opacity="1" fill-rule="nonzero"></path><path fill="#fbb03b" d="M 0 305.234375 C 0 303.507812 0 301.777344 0 300.050781 C 0 298.898438 0.574219 298.320312 1.726562 298.609375 C 5.175781 298.898438 8.050781 301.777344 8.050781 305.234375 C 8.050781 308.691406 5.175781 311.859375 1.726562 311.859375 C 0.289062 311.859375 0 311.574219 0 310.132812 C 0 308.691406 0 306.964844 0 305.234375 Z M 0 305.234375 " fill-opacity="1" fill-rule="nonzero"></path><path fill="#fbb03b" d="M 84.808594 333.464844 C 87.679688 333.464844 90.269531 335.769531 90.269531 338.648438 C 90.269531 341.53125 87.96875 344.121094 85.09375 344.121094 C 82.21875 344.121094 79.632812 341.816406 79.632812 338.9375 C 79.632812 336.058594 81.933594 333.464844 84.808594 333.464844 Z M 84.808594 333.464844 " fill-opacity="1" fill-rule="nonzero"></path><path fill="#fbb03b" d="M 23.574219 255.113281 C 23.574219 258.28125 21.273438 260.300781 18.398438 260.300781 C 15.238281 260.300781 13.222656 257.996094 13.222656 254.824219 C 13.222656 251.945312 15.523438 249.640625 18.398438 249.640625 C 21.273438 249.929688 23.574219 252.234375 23.574219 255.113281 Z M 23.574219 255.113281 " fill-opacity="1" fill-rule="nonzero"></path><path fill="#fbb03b" d="M 34.785156 266.636719 C 37.660156 266.636719 39.960938 268.941406 39.960938 271.820312 C 39.960938 274.703125 37.660156 277.007812 34.785156 277.007812 C 31.910156 277.007812 29.609375 274.703125 29.609375 271.820312 C 29.609375 268.652344 31.910156 266.636719 34.785156 266.636719 Z M 34.785156 266.636719 " fill-opacity="1" fill-rule="nonzero"></path><path fill="#fbb03b" d="M 56.632812 288.527344 C 56.632812 291.410156 54.332031 293.714844 51.460938 293.714844 C 48.585938 293.714844 46.285156 291.410156 46.285156 288.527344 C 46.285156 285.648438 48.585938 283.34375 51.460938 283.34375 C 54.332031 283.34375 56.632812 285.648438 56.632812 288.527344 Z M 56.632812 288.527344 " fill-opacity="1" fill-rule="nonzero"></path><path fill="#fbb03b" d="M 0 288.527344 C 0 286.800781 0 285.359375 0 283.632812 C 0 282.765625 0.574219 282.191406 1.4375 282.191406 C 4.886719 281.902344 7.761719 284.785156 7.761719 288.527344 C 7.761719 291.984375 4.886719 294.867188 1.4375 294.867188 C 0.574219 294.867188 0 294.289062 0 293.425781 C 0 291.695312 0 290.257812 0 288.527344 Z M 0 288.527344 " fill-opacity="1" fill-rule="nonzero"></path><path fill="#fbb03b" d="M 73.308594 305.523438 C 73.308594 308.402344 71.007812 310.707031 68.132812 310.421875 C 65.257812 310.421875 63.246094 308.117188 63.246094 305.234375 C 63.246094 302.355469 65.546875 300.050781 68.421875 300.339844 C 71.296875 300.339844 73.59375 302.644531 73.308594 305.523438 Z M 73.308594 305.523438 " fill-opacity="1" fill-rule="nonzero"></path><path fill="#fbb03b" d="M 89.980469 321.941406 C 89.980469 324.824219 87.96875 326.839844 85.09375 326.839844 C 82.21875 326.839844 80.207031 324.824219 80.207031 321.941406 C 80.207031 319.0625 82.21875 317.046875 85.09375 317.046875 C 87.679688 317.046875 89.980469 319.0625 89.980469 321.941406 Z M 89.980469 321.941406 " fill-opacity="1" fill-rule="nonzero"></path><path fill="#fbb03b" d="M 106.65625 338.648438 C 106.65625 341.242188 104.355469 343.546875 101.769531 343.546875 C 98.894531 343.546875 96.882812 341.53125 96.882812 338.648438 C 96.882812 336.058594 99.179688 333.753906 101.769531 333.753906 C 104.355469 333.753906 106.65625 336.058594 106.65625 338.648438 Z M 106.65625 338.648438 " fill-opacity="1" fill-rule="nonzero"></path><path fill="#fbb03b" d="M 18.109375 233.511719 C 20.699219 233.511719 23 235.8125 23 238.40625 C 23 241 20.699219 243.304688 18.109375 243.304688 C 15.523438 243.304688 13.222656 241 13.222656 238.40625 C 13.222656 235.8125 15.523438 233.511719 18.109375 233.511719 Z M 18.109375 233.511719 " fill-opacity="1" fill-rule="nonzero"></path><path fill="#fbb03b" d="M 0 271.820312 C 0 270.378906 0 268.652344 0 267.210938 C 0 266.347656 0.289062 265.773438 1.4375 265.773438 C 4.886719 265.484375 7.472656 268.363281 7.472656 271.820312 C 7.472656 275.277344 4.601562 277.871094 1.4375 277.582031 C 0.574219 277.582031 0.289062 277.292969 0.289062 276.429688 C 0 274.703125 0 273.261719 0 271.820312 Z M 0 271.820312 " fill-opacity="1" fill-rule="nonzero"></path><path fill="#fbb03b" d="M 39.671875 255.113281 C 39.671875 257.707031 37.371094 260.011719 34.785156 260.011719 C 32.199219 260.011719 29.898438 257.707031 29.898438 254.824219 C 29.898438 252.234375 32.199219 249.929688 34.785156 250.21875 C 37.660156 250.21875 39.671875 252.519531 39.671875 255.113281 Z M 39.671875 255.113281 " fill-opacity="1" fill-rule="nonzero"></path><path fill="#fbb03b" d="M 56.347656 271.820312 C 56.347656 274.414062 54.332031 276.429688 51.460938 276.429688 C 48.871094 276.429688 46.859375 274.414062 46.859375 271.53125 C 46.859375 268.941406 48.871094 266.925781 51.746094 266.925781 C 54.332031 267.210938 56.347656 269.226562 56.347656 271.820312 Z M 56.347656 271.820312 " fill-opacity="1" fill-rule="nonzero"></path><path fill="#fbb03b" d="M 0 255.113281 C 0 253.671875 0 252.519531 0 251.082031 C 0 249.929688 0.574219 249.640625 1.4375 249.640625 C 4.601562 249.640625 7.1875 252.234375 7.1875 255.402344 C 7.1875 258.570312 4.601562 261.164062 1.4375 261.164062 C 0.289062 261.164062 0 260.875 0 259.722656 C 0 257.996094 0 256.554688 0 255.113281 Z M 0 255.113281 " fill-opacity="1" fill-rule="nonzero"></path><path fill="#fbb03b" d="M 68.421875 283.917969 C 71.007812 283.917969 73.019531 285.9375 73.019531 288.527344 C 73.019531 291.121094 71.007812 293.136719 68.421875 293.136719 C 65.832031 293.136719 63.820312 291.121094 63.820312 288.527344 C 63.820312 285.9375 65.832031 283.917969 68.421875 283.917969 Z M 68.421875 283.917969 " fill-opacity="1" fill-rule="nonzero"></path><path fill="#fbb03b" d="M 84.808594 309.84375 C 82.507812 309.84375 80.207031 307.539062 80.207031 305.234375 C 80.207031 302.929688 82.507812 300.625 84.808594 300.625 C 87.105469 300.625 89.40625 302.929688 89.40625 305.234375 C 89.40625 307.828125 87.394531 309.84375 84.808594 309.84375 Z M 84.808594 309.84375 " fill-opacity="1" fill-rule="nonzero"></path><path fill="#fbb03b" d="M 22.710938 221.699219 C 22.710938 224.292969 20.699219 226.308594 18.109375 226.308594 C 15.523438 226.308594 13.511719 224.292969 13.511719 221.699219 C 13.511719 219.105469 15.523438 217.089844 18.109375 217.089844 C 20.699219 217.378906 22.710938 219.394531 22.710938 221.699219 Z M 22.710938 221.699219 " fill-opacity="1" fill-rule="nonzero"></path><path fill="#fbb03b" d="M 101.769531 317.621094 C 104.355469 317.621094 106.082031 319.351562 106.082031 321.941406 C 106.082031 324.535156 104.355469 326.261719 101.769531 326.261719 C 99.179688 326.261719 97.167969 324.535156 97.167969 321.941406 C 97.457031 319.351562 99.179688 317.621094 101.769531 317.621094 Z M 101.769531 317.621094 " fill-opacity="1" fill-rule="nonzero"></path><path fill="#fbb03b" d="M 0 238.117188 C 0 236.964844 0 235.527344 0 234.375 C 0 233.222656 0.574219 232.933594 1.4375 232.933594 C 4.3125 232.933594 6.898438 235.527344 6.613281 238.40625 C 6.613281 241.289062 4.023438 243.878906 1.4375 243.589844 C 0.574219 243.589844 0 243.304688 0 242.152344 C 0 241 0 239.558594 0 238.117188 Z M 0 238.117188 " fill-opacity="1" fill-rule="nonzero"></path><path fill="#fbb03b" d="M 39.097656 238.40625 C 39.097656 241 37.085938 242.726562 34.785156 242.726562 C 32.199219 242.726562 30.472656 240.710938 30.472656 238.117188 C 30.472656 235.8125 32.484375 233.796875 34.785156 233.796875 C 37.371094 233.796875 39.097656 235.8125 39.097656 238.40625 Z M 39.097656 238.40625 " fill-opacity="1" fill-rule="nonzero"></path><path fill="#fbb03b" d="M 118.15625 342.96875 C 115.855469 342.96875 113.84375 340.953125 113.84375 338.648438 C 113.84375 336.34375 115.855469 334.328125 118.15625 334.328125 C 120.453125 334.328125 122.464844 336.34375 122.464844 338.648438 C 122.464844 341.242188 120.453125 343.257812 118.15625 342.96875 Z M 118.15625 342.96875 " fill-opacity="1" fill-rule="nonzero"></path><path fill="#fbb03b" d="M 56.058594 255.113281 C 56.058594 257.417969 54.046875 259.433594 51.746094 259.433594 C 49.445312 259.433594 47.433594 257.417969 47.433594 255.113281 C 47.433594 252.808594 49.445312 250.792969 51.746094 250.792969 C 54.046875 250.792969 55.769531 252.808594 56.058594 255.113281 Z M 56.058594 255.113281 " fill-opacity="1" fill-rule="nonzero"></path><path fill="#fbb03b" d="M 72.445312 271.820312 C 72.445312 274.414062 70.71875 275.855469 68.132812 275.855469 C 65.832031 275.855469 64.109375 274.125 64.109375 271.53125 C 64.109375 268.941406 65.832031 267.5 68.421875 267.5 C 71.007812 267.5 72.445312 269.226562 72.445312 271.820312 Z M 72.445312 271.820312 " fill-opacity="1" fill-rule="nonzero"></path><path fill="#fbb03b" d="M 80.78125 288.527344 C 80.78125 286.222656 82.792969 284.496094 84.808594 284.496094 C 87.105469 284.496094 88.832031 286.511719 88.832031 288.816406 C 88.832031 291.121094 86.820312 292.847656 84.519531 292.847656 C 82.507812 292.5625 80.78125 290.832031 80.78125 288.527344 Z M 80.78125 288.527344 " fill-opacity="1" fill-rule="nonzero"></path><path fill="#fbb03b" d="M 6.324219 221.699219 C 6.324219 224.582031 4.023438 226.597656 1.4375 226.597656 C 0.574219 226.597656 0 226.308594 0 225.15625 C 0 222.851562 0 220.546875 0 217.953125 C 0 217.089844 0.574219 216.515625 1.4375 216.515625 C 4.023438 216.804688 6.324219 219.105469 6.324219 221.699219 Z M 6.324219 221.699219 " fill-opacity="1" fill-rule="nonzero"></path><path fill="#fbb03b" d="M 18.398438 209.023438 C 16.097656 209.023438 14.375 207.007812 14.375 204.992188 C 14.375 202.6875 16.386719 200.960938 18.398438 200.960938 C 20.410156 200.960938 22.421875 202.6875 22.421875 204.992188 C 22.421875 207.007812 20.410156 209.023438 18.398438 209.023438 Z M 18.398438 209.023438 " fill-opacity="1" fill-rule="nonzero"></path><path fill="#fbb03b" d="M 97.742188 305.523438 C 97.742188 303.507812 99.46875 301.492188 101.769531 301.492188 C 103.78125 301.492188 105.792969 303.507812 105.792969 305.523438 C 105.792969 307.539062 103.78125 309.554688 101.769531 309.554688 C 99.753906 309.554688 97.742188 307.539062 97.742188 305.523438 Z M 97.742188 305.523438 " fill-opacity="1" fill-rule="nonzero"></path><path fill="#fbb03b" d="M 34.785156 225.730469 C 32.484375 225.730469 31.046875 224.003906 31.046875 221.699219 C 31.046875 219.394531 32.773438 217.953125 35.074219 217.953125 C 37.371094 217.953125 38.808594 219.683594 38.808594 221.988281 C 38.523438 224.003906 37.085938 225.730469 34.785156 225.730469 Z M 34.785156 225.730469 " fill-opacity="1" fill-rule="nonzero"></path><path fill="#fbb03b" d="M 122.179688 321.941406 C 122.179688 324.246094 120.453125 325.976562 118.441406 325.976562 C 116.140625 325.976562 114.703125 324.246094 114.703125 322.230469 C 114.703125 319.925781 116.429688 318.199219 118.441406 318.199219 C 120.453125 318.199219 122.179688 319.636719 122.179688 321.941406 Z M 122.179688 321.941406 " fill-opacity="1" fill-rule="nonzero"></path><path fill="#fbb03b" d="M 55.484375 238.40625 C 55.484375 240.421875 53.757812 242.152344 51.746094 242.152344 C 49.734375 242.152344 48.007812 240.421875 48.007812 238.40625 C 48.007812 236.390625 49.734375 234.660156 51.746094 234.660156 C 53.757812 234.375 55.484375 236.101562 55.484375 238.40625 Z M 55.484375 238.40625 " fill-opacity="1" fill-rule="nonzero"></path><path fill="#fbb03b" d="M 0 204.992188 C 0 203.839844 0 202.976562 0 201.824219 C 0 200.960938 0.574219 200.382812 1.4375 200.382812 C 3.738281 200.09375 6.035156 202.398438 6.035156 204.992188 C 6.035156 207.585938 3.738281 209.601562 1.4375 209.601562 C 0.574219 209.601562 0 209.3125 0 208.160156 C 0 207.007812 0 205.855469 0 204.992188 Z M 0 204.992188 " fill-opacity="1" fill-rule="nonzero"></path><path fill="#fbb03b" d="M 138.851562 338.648438 C 138.851562 340.664062 137.128906 342.394531 135.117188 342.394531 C 133.105469 342.394531 131.378906 340.664062 131.378906 338.648438 C 131.378906 336.632812 133.105469 334.90625 135.117188 334.90625 C 137.128906 334.90625 138.851562 336.921875 138.851562 338.648438 Z M 138.851562 338.648438 " fill-opacity="1" fill-rule="nonzero"></path><path fill="#fbb03b" d="M 72.15625 255.113281 C 72.15625 257.128906 70.71875 258.859375 68.707031 258.859375 C 66.40625 258.859375 64.96875 257.417969 64.96875 255.113281 C 64.96875 253.097656 66.40625 251.371094 68.707031 251.371094 C 70.433594 251.371094 71.871094 253.097656 72.15625 255.113281 Z M 72.15625 255.113281 " fill-opacity="1" fill-rule="nonzero"></path><path fill="#fbb03b" d="M 84.808594 275.277344 C 82.792969 275.277344 81.355469 273.550781 81.355469 271.53125 C 81.355469 269.515625 83.082031 268.078125 85.09375 268.078125 C 87.105469 268.078125 88.542969 269.804688 88.542969 271.820312 C 88.542969 273.835938 86.820312 275.277344 84.808594 275.277344 Z M 84.808594 275.277344 " fill-opacity="1" fill-rule="nonzero"></path><path fill="#fbb03b" d="M 18.398438 184.539062 C 20.410156 184.539062 21.847656 186.269531 21.847656 188.285156 C 21.847656 190.300781 20.125 191.742188 18.109375 191.742188 C 16.097656 191.742188 14.660156 190.015625 14.660156 187.996094 C 14.660156 185.980469 16.386719 184.539062 18.398438 184.539062 Z M 18.398438 184.539062 " fill-opacity="1" fill-rule="nonzero"></path><path fill="#fbb03b" d="M 0 187.996094 C 0 187.132812 0 186.269531 0 185.117188 C 0 184.253906 0.574219 183.675781 1.4375 183.675781 C 3.449219 183.675781 5.460938 185.40625 5.460938 187.710938 C 5.460938 190.015625 3.449219 191.742188 1.4375 191.742188 C 0.574219 191.742188 0 191.164062 0 190.300781 C 0 189.726562 0 188.863281 0 187.996094 Z M 0 187.996094 " fill-opacity="1" fill-rule="nonzero"></path><path fill="#fbb03b" d="M 105.21875 288.527344 C 105.21875 290.542969 103.78125 291.984375 101.769531 291.984375 C 99.753906 291.984375 98.320312 290.257812 98.320312 288.527344 C 98.320312 286.800781 99.753906 285.070312 101.769531 285.070312 C 103.492188 285.070312 105.21875 286.511719 105.21875 288.527344 Z M 105.21875 288.527344 " fill-opacity="1" fill-rule="nonzero"></path><path fill="#fbb03b" d="M 38.234375 204.992188 C 38.234375 207.007812 36.796875 208.449219 34.785156 208.449219 C 32.773438 208.449219 31.335938 207.007812 31.621094 204.992188 C 31.621094 202.976562 33.058594 201.824219 35.074219 201.824219 C 36.796875 201.535156 38.234375 202.976562 38.234375 204.992188 Z M 38.234375 204.992188 " fill-opacity="1" fill-rule="nonzero"></path><path fill="#fbb03b" d="M 121.605469 305.234375 C 121.605469 307.25 120.167969 308.691406 118.15625 308.691406 C 116.140625 308.691406 114.703125 307.25 114.703125 305.234375 C 114.703125 303.21875 116.140625 301.777344 118.15625 301.777344 C 120.167969 302.066406 121.605469 303.507812 121.605469 305.234375 Z M 121.605469 305.234375 " fill-opacity="1" fill-rule="nonzero"></path><path fill="#fbb03b" d="M 54.910156 221.699219 C 54.910156 223.429688 53.472656 225.15625 51.460938 224.867188 C 49.734375 224.867188 48.296875 223.429688 48.296875 221.699219 C 48.296875 219.972656 49.734375 218.242188 51.746094 218.53125 C 53.472656 218.53125 54.910156 219.972656 54.910156 221.699219 Z M 54.910156 221.699219 " fill-opacity="1" fill-rule="nonzero"></path><path fill="#fbb03b" d="M 138.277344 321.941406 C 138.277344 323.671875 136.554688 325.109375 135.117188 325.109375 C 133.390625 325.109375 131.953125 323.382812 131.953125 321.652344 C 131.953125 319.925781 133.390625 318.484375 135.117188 318.484375 C 136.554688 318.773438 138.277344 320.214844 138.277344 321.941406 Z M 138.277344 321.941406 " fill-opacity="1" fill-rule="nonzero"></path><g clip-path="url(#895d81dff0)"><path fill="#fbb03b" d="M 0 171.289062 C 0 170.714844 0 170.136719 0 169.5625 C 0 168.121094 0.574219 167.546875 2.011719 167.832031 C 3.738281 168.121094 5.175781 169.851562 5.175781 171.578125 C 5.175781 173.308594 3.738281 174.746094 2.011719 175.035156 C 0.574219 175.035156 0.289062 174.746094 0.289062 173.59375 C 0 172.730469 0 172.15625 0 171.289062 Z M 0 171.289062 " fill-opacity="1" fill-rule="nonzero"></path></g><path fill="#fbb03b" d="M 68.421875 235.238281 C 70.144531 235.238281 71.582031 236.390625 71.582031 238.40625 C 71.582031 240.136719 70.433594 241.574219 68.421875 241.574219 C 66.695312 241.574219 65.257812 240.136719 65.257812 238.40625 C 65.257812 236.390625 66.695312 235.238281 68.421875 235.238281 Z M 68.421875 235.238281 " fill-opacity="1" fill-rule="nonzero"></path><path fill="#fbb03b" d="M 154.953125 338.648438 C 154.953125 340.378906 153.515625 341.816406 152.078125 341.816406 C 150.351562 341.816406 148.914062 340.378906 148.914062 338.648438 C 148.914062 336.921875 150.351562 335.769531 151.789062 335.480469 C 153.515625 335.769531 154.953125 337.210938 154.953125 338.648438 Z M 154.953125 338.648438 " fill-opacity="1" fill-rule="nonzero"></path><path fill="#fbb03b" d="M 84.808594 252.234375 C 86.53125 252.234375 87.679688 253.671875 87.96875 255.113281 C 87.96875 256.84375 86.53125 258.28125 84.808594 258.28125 C 83.082031 258.28125 81.933594 256.84375 81.933594 255.113281 C 81.933594 253.386719 83.371094 252.234375 84.808594 252.234375 Z M 84.808594 252.234375 " fill-opacity="1" fill-rule="nonzero"></path><path fill="#fbb03b" d="M 104.644531 271.820312 C 104.644531 273.550781 103.492188 274.703125 101.769531 274.703125 C 100.042969 274.703125 98.894531 273.550781 98.894531 271.820312 C 98.894531 270.09375 100.042969 268.941406 101.769531 268.941406 C 103.492188 268.941406 104.644531 270.09375 104.644531 271.820312 Z M 104.644531 271.820312 " fill-opacity="1" fill-rule="nonzero"></path><path fill="#fbb03b" d="M 121.03125 288.527344 C 121.03125 289.96875 119.878906 291.121094 118.441406 291.410156 C 117.003906 291.410156 115.855469 290.257812 115.566406 288.816406 C 115.566406 287.375 116.71875 286.222656 118.15625 285.9375 C 119.59375 285.9375 121.03125 287.085938 121.03125 288.527344 Z M 121.03125 288.527344 " fill-opacity="1" fill-rule="nonzero"></path><path fill="#fbb03b" d="M 135.117188 302.929688 C 136.554688 302.929688 137.703125 304.082031 137.703125 305.523438 C 137.703125 306.964844 136.554688 308.117188 135.117188 308.117188 C 133.679688 308.117188 132.527344 306.964844 132.527344 305.523438 C 132.527344 303.796875 133.679688 302.929688 135.117188 302.929688 Z M 135.117188 302.929688 " fill-opacity="1" fill-rule="nonzero"></path><path fill="#fbb03b" d="M 151.789062 319.636719 C 153.226562 319.636719 154.089844 320.503906 154.089844 321.941406 C 154.089844 323.382812 153.226562 324.246094 151.789062 324.246094 C 150.351562 324.246094 149.488281 323.382812 149.488281 321.941406 C 149.488281 320.503906 150.351562 319.636719 151.789062 319.636719 Z M 151.789062 319.636719 " fill-opacity="1" fill-rule="nonzero"></path><path fill="#fbb03b" d="M 168.464844 340.953125 C 167.3125 340.953125 166.164062 340.089844 166.164062 338.648438 C 166.164062 337.496094 167.3125 336.34375 168.464844 336.632812 C 169.613281 336.632812 170.476562 337.496094 170.476562 338.648438 C 170.476562 339.800781 169.613281 340.953125 168.464844 340.953125 Z M 168.464844 340.953125 " fill-opacity="1" fill-rule="nonzero"></path><path fill="#fbb03b" d="M 118.15625 273.835938 C 117.003906 273.835938 116.140625 272.972656 116.140625 271.820312 C 116.140625 270.957031 117.003906 269.515625 117.578125 269.804688 C 118.441406 270.378906 119.304688 271.246094 119.878906 272.109375 C 120.453125 272.683594 119.304688 273.835938 118.15625 273.835938 Z M 118.15625 273.835938 " fill-opacity="1" fill-rule="nonzero"></path><path fill="#fbb03b" d="M 135.117188 290.257812 C 133.964844 290.257812 133.390625 289.679688 133.390625 288.527344 C 133.390625 287.375 133.964844 286.800781 135.117188 286.800781 C 136.265625 286.800781 136.839844 287.664062 136.839844 288.527344 C 136.839844 289.679688 135.976562 290.257812 135.117188 290.257812 Z M 135.117188 290.257812 " fill-opacity="1" fill-rule="nonzero"></path><path fill="#fbb03b" d="M 102.054688 257.417969 C 100.042969 257.417969 98.894531 255.691406 99.46875 254.25 C 99.753906 253.671875 100.042969 253.386719 100.617188 253.960938 C 101.191406 254.539062 101.769531 254.824219 102.34375 255.402344 C 102.628906 255.691406 102.917969 256.265625 103.207031 256.554688 C 102.628906 257.128906 102.34375 257.128906 102.054688 257.417969 Z M 102.054688 257.417969 " fill-opacity="1" fill-rule="nonzero"></path><path fill="#fbb03b" d="M 151.789062 303.796875 C 152.652344 303.796875 153.226562 304.371094 153.226562 305.234375 C 153.226562 306.097656 152.652344 306.675781 151.789062 306.675781 C 150.925781 306.675781 150.351562 306.097656 150.351562 305.234375 C 150.351562 304.371094 150.925781 304.082031 151.789062 303.796875 Z M 151.789062 303.796875 " fill-opacity="1" fill-rule="nonzero"></path><path fill="#fbb03b" d="M 82.507812 237.542969 C 83.65625 238.695312 84.808594 239.558594 85.667969 240.421875 C 84.808594 241 83.945312 240.710938 83.371094 240.421875 C 82.792969 239.847656 82.21875 238.984375 82.507812 237.542969 Z M 82.507812 237.542969 " fill-opacity="1" fill-rule="nonzero"></path><path fill="#fbb03b" d="M 168.464844 320.214844 C 169.039062 321.078125 169.613281 321.367188 169.613281 321.941406 C 169.613281 322.230469 169.039062 322.804688 168.464844 323.09375 C 168.175781 322.804688 167.3125 322.230469 167.3125 321.941406 C 167.3125 321.652344 167.890625 321.078125 168.464844 320.214844 Z M 168.464844 320.214844 " fill-opacity="1" fill-rule="nonzero"></path><path fill="#fbb03b" d="M 185.136719 340.089844 C 184.5625 339.511719 184.273438 339.226562 184.273438 338.9375 C 184.273438 338.648438 184.851562 338.074219 185.136719 338.074219 C 185.425781 338.074219 186 338.648438 186 338.9375 C 186 338.9375 185.710938 339.511719 185.136719 340.089844 Z M 185.136719 340.089844 " fill-opacity="1" fill-rule="nonzero"></path><path fill="#fbb03b" d="M 66.121094 222.5625 C 66.695312 223.140625 67.558594 223.714844 68.132812 224.292969 C 68.132812 224.292969 67.84375 224.582031 67.84375 224.582031 C 67.269531 224.003906 66.40625 223.429688 65.832031 222.851562 C 65.832031 222.851562 66.121094 222.5625 66.121094 222.5625 Z M 66.121094 222.5625 " fill-opacity="1" fill-rule="nonzero"></path><path fill="#f7980f" d="M 911.589844 0.289062 C 911.878906 0.289062 912.453125 0.289062 912.742188 0.289062 C 916.191406 0.289062 918.488281 2.59375 918.488281 6.050781 C 918.488281 8.933594 916.476562 11.8125 913.890625 12.675781 C 911.015625 13.539062 907.851562 12.675781 906.128906 10.371094 C 904.402344 8.066406 904.402344 4.609375 905.839844 2.304688 C 906.703125 0.867188 907.851562 0.00390625 909.578125 0.289062 C 910.441406 0.289062 911.015625 0.289062 911.589844 0.289062 Z M 911.589844 0.289062 " fill-opacity="1" fill-rule="nonzero"></path><path fill="#f7980f" d="M 911.589844 16.421875 C 915.328125 16.421875 918.203125 19.589844 918.203125 23.046875 C 918.203125 26.503906 915.039062 29.671875 911.589844 29.671875 C 907.851562 29.671875 904.976562 26.503906 904.976562 23.046875 C 904.976562 19.300781 908.140625 16.421875 911.589844 16.421875 Z M 911.589844 16.421875 " fill-opacity="1" fill-rule="nonzero"></path><path fill="#f7980f" d="M 894.917969 0.289062 C 899.230469 0.289062 901.527344 2.019531 901.816406 5.476562 C 902.105469 8.933594 900.089844 12.101562 896.640625 12.675781 C 893.191406 13.253906 890.03125 11.523438 889.167969 8.066406 C 888.59375 6.050781 888.878906 4.324219 889.742188 2.59375 C 890.890625 0.578125 892.902344 0.00390625 894.917969 0.289062 Z M 894.917969 0.289062 " fill-opacity="1" fill-rule="nonzero"></path><path fill="#f7980f" d="M 911.589844 45.800781 C 907.851562 45.800781 905.265625 43.210938 905.265625 39.464844 C 905.265625 35.722656 907.851562 33.128906 911.589844 33.128906 C 915.328125 33.128906 917.914062 35.722656 917.914062 39.464844 C 917.914062 43.210938 915.328125 45.800781 911.589844 45.800781 Z M 911.589844 45.800781 " fill-opacity="1" fill-rule="nonzero"></path><path fill="#f7980f" d="M 888.878906 23.046875 C 888.878906 19.589844 891.46875 16.710938 895.203125 16.710938 C 898.652344 16.710938 901.527344 19.300781 901.527344 23.046875 C 901.527344 26.503906 898.941406 29.382812 895.203125 29.382812 C 891.753906 29.382812 888.878906 26.503906 888.878906 23.046875 Z M 888.878906 23.046875 " fill-opacity="1" fill-rule="nonzero"></path><path fill="#f7980f" d="M 878.53125 0.289062 C 882.265625 0.289062 884.855469 2.882812 884.566406 6.339844 C 884.566406 9.796875 881.691406 12.386719 878.242188 12.386719 C 874.792969 12.386719 872.207031 9.507812 872.207031 6.050781 C 872.207031 2.882812 874.792969 0.289062 878.53125 0.289062 Z M 878.53125 0.289062 " fill-opacity="1" fill-rule="nonzero"></path><path fill="#f7980f" d="M 905.839844 56.460938 C 905.839844 53.003906 908.429688 50.410156 911.878906 50.410156 C 915.328125 50.410156 917.914062 53.003906 917.914062 56.460938 C 917.914062 59.917969 915.328125 62.511719 911.878906 62.511719 C 908.429688 62.511719 905.839844 59.917969 905.839844 56.460938 Z M 905.839844 56.460938 " fill-opacity="1" fill-rule="nonzero"></path><path fill="#f7980f" d="M 895.203125 33.703125 C 898.367188 33.703125 901.242188 36.296875 901.242188 39.464844 C 901.242188 42.921875 898.652344 45.515625 895.203125 45.515625 C 892.042969 45.515625 889.167969 42.921875 889.167969 39.464844 C 889.167969 36.296875 891.753906 33.703125 895.203125 33.703125 Z M 895.203125 33.703125 " fill-opacity="1" fill-rule="nonzero"></path><path fill="#f7980f" d="M 872.492188 23.046875 C 872.492188 19.878906 875.367188 16.996094 878.53125 16.996094 C 881.691406 16.996094 884.28125 19.878906 884.28125 23.046875 C 884.28125 26.214844 881.40625 29.09375 878.242188 29.09375 C 875.082031 28.808594 872.492188 26.214844 872.492188 23.046875 Z M 872.492188 23.046875 " fill-opacity="1" fill-rule="nonzero"></path><path fill="#f7980f" d="M 861.570312 0.578125 C 864.730469 0.578125 867.320312 2.882812 867.320312 6.339844 C 867.320312 9.507812 865.019531 12.101562 861.570312 12.101562 C 858.117188 12.101562 855.820312 9.796875 855.820312 6.339844 C 855.820312 2.882812 858.40625 0.578125 861.570312 0.578125 Z M 861.570312 0.578125 " fill-opacity="1" fill-rule="nonzero"></path><path fill="#f7980f" d="M 906.128906 73.167969 C 906.128906 70 908.714844 67.40625 911.878906 67.40625 C 915.039062 67.40625 917.628906 70 917.628906 73.167969 C 917.628906 76.335938 915.039062 78.929688 911.878906 78.929688 C 908.714844 78.929688 906.128906 76.335938 906.128906 73.167969 Z M 906.128906 73.167969 " fill-opacity="1" fill-rule="nonzero"></path><g clip-path="url(#eab17a0227)"><path fill="#f7980f" d="M 929.988281 6.914062 C 929.988281 8.644531 929.988281 10.371094 929.988281 12.101562 C 929.988281 13.253906 929.414062 13.539062 928.550781 13.539062 C 925.675781 13.539062 923.089844 11.523438 921.941406 8.933594 C 920.789062 6.339844 921.652344 2.882812 923.664062 1.15625 C 924.238281 0.867188 924.816406 0.578125 925.390625 0.289062 C 926.539062 0.289062 927.6875 0.289062 928.839844 0.289062 C 929.703125 0.289062 929.988281 0.578125 929.988281 1.441406 C 929.988281 3.457031 929.988281 5.1875 929.988281 6.914062 Z M 929.988281 6.914062 " fill-opacity="1" fill-rule="nonzero"></path></g><path fill="#f7980f" d="M 895.203125 50.699219 C 898.078125 50.699219 900.667969 53.292969 900.953125 56.171875 C 900.953125 59.339844 898.367188 61.933594 895.203125 61.933594 C 892.042969 61.933594 889.742188 59.339844 889.742188 56.171875 C 889.453125 53.292969 892.042969 50.699219 895.203125 50.699219 Z M 895.203125 50.699219 " fill-opacity="1" fill-rule="nonzero"></path><g clip-path="url(#c581ccdafd)"><path fill="#f7980f" d="M 929.988281 23.046875 C 929.988281 24.773438 929.988281 26.792969 929.988281 28.519531 C 929.988281 29.671875 929.414062 29.960938 928.550781 29.960938 C 924.816406 29.960938 921.652344 26.792969 921.652344 23.046875 C 921.652344 19.300781 924.816406 16.132812 928.550781 16.132812 C 929.703125 16.132812 929.988281 16.421875 929.988281 17.574219 C 929.988281 19.300781 929.988281 21.316406 929.988281 23.046875 Z M 929.988281 23.046875 " fill-opacity="1" fill-rule="nonzero"></path></g><path fill="#f7980f" d="M 873.066406 39.753906 C 873.066406 36.585938 875.367188 34.28125 878.53125 34.28125 C 881.691406 34.28125 883.992188 36.585938 883.992188 39.753906 C 883.992188 42.921875 881.691406 45.226562 878.53125 45.226562 C 875.367188 45.226562 873.066406 42.921875 873.066406 39.753906 Z M 873.066406 39.753906 " fill-opacity="1" fill-rule="nonzero"></path><path fill="#f7980f" d="M 856.105469 23.046875 C 856.105469 19.878906 858.40625 17.574219 861.570312 17.574219 C 864.730469 17.574219 867.03125 19.878906 867.03125 23.046875 C 867.03125 25.925781 864.730469 28.519531 861.570312 28.519531 C 858.40625 28.519531 856.105469 26.214844 856.105469 23.046875 Z M 856.105469 23.046875 " fill-opacity="1" fill-rule="nonzero"></path><g clip-path="url(#05ca0b6f13)"><path fill="#f7980f" d="M 929.988281 39.753906 C 929.988281 41.480469 929.988281 43.210938 929.988281 44.9375 C 929.988281 46.089844 929.414062 46.667969 928.265625 46.378906 C 924.816406 46.089844 921.941406 43.210938 921.941406 39.753906 C 921.941406 36.296875 924.816406 33.128906 928.265625 33.128906 C 929.703125 33.128906 929.988281 33.417969 929.988281 34.855469 C 929.988281 36.296875 929.988281 38.023438 929.988281 39.753906 Z M 929.988281 39.753906 " fill-opacity="1" fill-rule="nonzero"></path></g><path fill="#f7980f" d="M 845.183594 11.523438 C 842.308594 11.523438 839.71875 9.21875 839.71875 6.339844 C 839.71875 3.457031 842.019531 0.867188 844.894531 0.867188 C 847.769531 0.867188 850.355469 3.171875 850.355469 6.050781 C 850.355469 8.933594 848.058594 11.523438 845.183594 11.523438 Z M 845.183594 11.523438 " fill-opacity="1" fill-rule="nonzero"></path><path fill="#f7980f" d="M 906.414062 89.875 C 906.414062 86.707031 908.714844 84.691406 911.589844 84.691406 C 914.753906 84.691406 916.765625 86.996094 916.765625 90.164062 C 916.765625 93.042969 914.464844 95.347656 911.589844 95.347656 C 908.714844 95.058594 906.414062 92.753906 906.414062 89.875 Z M 906.414062 89.875 " fill-opacity="1" fill-rule="nonzero"></path><path fill="#f7980f" d="M 895.203125 78.351562 C 892.328125 78.351562 890.03125 76.046875 890.03125 73.167969 C 890.03125 70.289062 892.328125 67.984375 895.203125 67.984375 C 898.078125 67.984375 900.378906 70.289062 900.378906 73.167969 C 900.378906 76.335938 898.078125 78.351562 895.203125 78.351562 Z M 895.203125 78.351562 " fill-opacity="1" fill-rule="nonzero"></path><path fill="#f7980f" d="M 873.355469 56.460938 C 873.355469 53.582031 875.65625 51.277344 878.53125 51.277344 C 881.40625 51.277344 883.703125 53.582031 883.703125 56.460938 C 883.703125 59.339844 881.40625 61.644531 878.53125 61.644531 C 875.65625 61.644531 873.355469 59.339844 873.355469 56.460938 Z M 873.355469 56.460938 " fill-opacity="1" fill-rule="nonzero"></path><g clip-path="url(#592965e001)"><path fill="#f7980f" d="M 929.988281 56.460938 C 929.988281 58.1875 929.988281 59.628906 929.988281 61.359375 C 929.988281 62.222656 929.414062 62.796875 928.550781 62.796875 C 925.101562 63.085938 922.226562 60.207031 922.226562 56.460938 C 922.226562 53.003906 925.101562 50.125 928.550781 50.125 C 929.414062 50.125 929.988281 50.699219 929.988281 51.5625 C 929.988281 53.292969 929.988281 54.730469 929.988281 56.460938 Z M 929.988281 56.460938 " fill-opacity="1" fill-rule="nonzero"></path></g><path fill="#f7980f" d="M 856.683594 39.464844 C 856.683594 36.585938 858.980469 34.28125 861.855469 34.570312 C 864.730469 34.570312 866.742188 36.871094 866.742188 39.753906 C 866.742188 42.632812 864.445312 44.9375 861.570312 44.652344 C 858.695312 44.652344 856.394531 42.347656 856.683594 39.464844 Z M 856.683594 39.464844 " fill-opacity="1" fill-rule="nonzero"></path><path fill="#f7980f" d="M 840.007812 23.046875 C 840.007812 20.164062 842.019531 18.148438 844.894531 18.148438 C 847.769531 18.148438 849.78125 20.164062 849.78125 23.046875 C 849.78125 25.925781 847.769531 27.941406 844.894531 27.941406 C 842.308594 27.941406 840.007812 25.925781 840.007812 23.046875 Z M 840.007812 23.046875 " fill-opacity="1" fill-rule="nonzero"></path><path fill="#f7980f" d="M 823.332031 6.339844 C 823.332031 3.746094 825.632812 1.441406 828.222656 1.441406 C 831.097656 1.441406 833.109375 3.457031 833.109375 6.339844 C 833.109375 8.933594 830.808594 11.234375 828.222656 11.234375 C 825.632812 11.234375 823.332031 8.933594 823.332031 6.339844 Z M 823.332031 6.339844 " fill-opacity="1" fill-rule="nonzero"></path><path fill="#f7980f" d="M 911.878906 111.480469 C 909.289062 111.480469 906.992188 109.175781 906.992188 106.582031 C 906.992188 103.988281 909.289062 101.683594 911.878906 101.683594 C 914.464844 101.683594 916.765625 103.988281 916.765625 106.582031 C 916.765625 109.175781 914.464844 111.480469 911.878906 111.480469 Z M 911.878906 111.480469 " fill-opacity="1" fill-rule="nonzero"></path><g clip-path="url(#f310bdc49b)"><path fill="#f7980f" d="M 929.988281 73.167969 C 929.988281 74.609375 929.988281 76.335938 929.988281 77.777344 C 929.988281 78.640625 929.703125 79.21875 928.550781 79.21875 C 925.101562 79.503906 922.515625 76.625 922.515625 73.167969 C 922.515625 69.710938 925.390625 67.117188 928.550781 67.40625 C 929.414062 67.40625 929.703125 67.695312 929.703125 68.558594 C 929.988281 70.289062 929.988281 71.726562 929.988281 73.167969 Z M 929.988281 73.167969 " fill-opacity="1" fill-rule="nonzero"></path></g><path fill="#f7980f" d="M 890.316406 89.875 C 890.316406 87.28125 892.617188 84.976562 895.203125 84.976562 C 897.792969 84.976562 900.089844 87.28125 900.089844 90.164062 C 900.089844 92.753906 897.792969 95.058594 895.203125 94.773438 C 892.328125 94.773438 890.316406 92.46875 890.316406 89.875 Z M 890.316406 89.875 " fill-opacity="1" fill-rule="nonzero"></path><path fill="#f7980f" d="M 873.644531 73.167969 C 873.644531 70.574219 875.65625 68.558594 878.53125 68.558594 C 881.117188 68.558594 883.128906 70.574219 883.128906 73.457031 C 883.128906 76.046875 881.117188 78.066406 878.242188 78.066406 C 875.65625 77.777344 873.644531 75.761719 873.644531 73.167969 Z M 873.644531 73.167969 " fill-opacity="1" fill-rule="nonzero"></path><g clip-path="url(#4205b21d39)"><path fill="#f7980f" d="M 929.988281 89.875 C 929.988281 91.316406 929.988281 92.46875 929.988281 93.90625 C 929.988281 95.058594 929.414062 95.347656 928.550781 95.347656 C 925.390625 95.347656 922.800781 92.753906 922.800781 89.585938 C 922.800781 86.417969 925.390625 83.824219 928.550781 83.824219 C 929.703125 83.824219 929.988281 84.113281 929.988281 85.265625 C 929.988281 86.996094 929.988281 88.433594 929.988281 89.875 Z M 929.988281 89.875 " fill-opacity="1" fill-rule="nonzero"></path></g><path fill="#f7980f" d="M 861.570312 61.070312 C 858.980469 61.070312 856.96875 59.054688 856.96875 56.460938 C 856.96875 53.867188 858.980469 51.851562 861.570312 51.851562 C 864.15625 51.851562 866.167969 53.867188 866.167969 56.460938 C 866.167969 59.054688 864.15625 61.070312 861.570312 61.070312 Z M 861.570312 61.070312 " fill-opacity="1" fill-rule="nonzero"></path><path fill="#f7980f" d="M 845.183594 35.144531 C 847.480469 35.144531 849.78125 37.449219 849.78125 39.753906 C 849.78125 42.058594 847.480469 44.363281 845.183594 44.363281 C 842.882812 44.363281 840.582031 42.058594 840.582031 39.753906 C 840.582031 37.160156 842.59375 35.144531 845.183594 35.144531 Z M 845.183594 35.144531 " fill-opacity="1" fill-rule="nonzero"></path><path fill="#f7980f" d="M 907.277344 123.289062 C 907.277344 120.695312 909.289062 118.679688 911.878906 118.679688 C 914.464844 118.679688 916.476562 120.695312 916.476562 123.289062 C 916.476562 125.882812 914.464844 127.898438 911.878906 127.898438 C 909.289062 127.609375 907.277344 125.59375 907.277344 123.289062 Z M 907.277344 123.289062 " fill-opacity="1" fill-rule="nonzero"></path><path fill="#f7980f" d="M 828.222656 27.367188 C 825.632812 27.367188 823.910156 25.640625 823.910156 23.046875 C 823.910156 20.453125 825.632812 18.726562 828.222656 18.726562 C 830.808594 18.726562 832.820312 20.453125 832.820312 23.046875 C 832.535156 25.640625 830.808594 27.367188 828.222656 27.367188 Z M 828.222656 27.367188 " fill-opacity="1" fill-rule="nonzero"></path><g clip-path="url(#d322cdfe93)"><path fill="#f7980f" d="M 929.988281 106.871094 C 929.988281 108.023438 929.988281 109.460938 929.988281 110.613281 C 929.988281 111.765625 929.414062 112.054688 928.550781 112.054688 C 925.675781 112.054688 923.089844 109.460938 923.378906 106.582031 C 923.378906 103.703125 925.964844 101.109375 928.550781 101.398438 C 929.414062 101.398438 929.988281 101.683594 929.988281 102.835938 C 929.988281 103.988281 929.988281 105.429688 929.988281 106.871094 Z M 929.988281 106.871094 " fill-opacity="1" fill-rule="nonzero"></path></g><path fill="#f7980f" d="M 890.890625 106.582031 C 890.890625 103.988281 892.902344 102.261719 895.203125 102.261719 C 897.792969 102.261719 899.515625 104.277344 899.515625 106.871094 C 899.515625 109.175781 897.503906 111.191406 895.203125 111.191406 C 892.617188 111.191406 890.890625 109.175781 890.890625 106.582031 Z M 890.890625 106.582031 " fill-opacity="1" fill-rule="nonzero"></path><path fill="#f7980f" d="M 811.835938 2.019531 C 814.132812 2.019531 816.148438 4.035156 816.148438 6.339844 C 816.148438 8.644531 814.132812 10.660156 811.835938 10.660156 C 809.535156 10.660156 807.523438 8.644531 807.523438 6.339844 C 807.523438 3.746094 809.535156 1.730469 811.835938 2.019531 Z M 811.835938 2.019531 " fill-opacity="1" fill-rule="nonzero"></path><path fill="#f7980f" d="M 873.929688 89.875 C 873.929688 87.570312 875.941406 85.554688 878.242188 85.554688 C 880.542969 85.554688 882.554688 87.570312 882.554688 89.875 C 882.554688 92.179688 880.542969 94.195312 878.242188 94.195312 C 875.941406 94.195312 874.21875 92.179688 873.929688 89.875 Z M 873.929688 89.875 " fill-opacity="1" fill-rule="nonzero"></path><path fill="#f7980f" d="M 857.542969 73.167969 C 857.542969 70.574219 859.269531 69.136719 861.855469 69.136719 C 864.15625 69.136719 865.882812 70.863281 865.882812 73.457031 C 865.882812 76.046875 864.15625 77.488281 861.570312 77.488281 C 858.980469 77.488281 857.542969 75.761719 857.542969 73.167969 Z M 857.542969 73.167969 " fill-opacity="1" fill-rule="nonzero"></path><path fill="#f7980f" d="M 849.207031 56.460938 C 849.207031 58.765625 847.195312 60.492188 845.183594 60.492188 C 842.882812 60.492188 841.15625 58.476562 841.15625 56.171875 C 841.15625 53.867188 843.171875 52.140625 845.46875 52.140625 C 847.480469 52.429688 849.207031 54.15625 849.207031 56.460938 Z M 849.207031 56.460938 " fill-opacity="1" fill-rule="nonzero"></path><g clip-path="url(#780d33a244)"><path fill="#f7980f" d="M 923.664062 123.289062 C 923.664062 120.410156 925.964844 118.390625 928.550781 118.390625 C 929.414062 118.390625 929.988281 118.679688 929.988281 119.832031 C 929.988281 122.136719 929.988281 124.441406 929.988281 127.035156 C 929.988281 127.898438 929.414062 128.472656 928.550781 128.472656 C 925.964844 128.1875 923.664062 125.882812 923.664062 123.289062 Z M 923.664062 123.289062 " fill-opacity="1" fill-rule="nonzero"></path></g><path fill="#f7980f" d="M 911.589844 135.964844 C 913.890625 135.964844 915.613281 137.980469 915.613281 139.996094 C 915.613281 142.300781 913.601562 144.027344 911.589844 144.027344 C 909.578125 144.027344 907.566406 142.300781 907.566406 139.996094 C 907.566406 137.980469 909.578125 135.964844 911.589844 135.964844 Z M 911.589844 135.964844 " fill-opacity="1" fill-rule="nonzero"></path><path fill="#f7980f" d="M 832.246094 39.464844 C 832.246094 41.480469 830.519531 43.5 828.222656 43.5 C 826.207031 43.5 824.195312 41.480469 824.195312 39.464844 C 824.195312 37.449219 826.207031 35.433594 828.222656 35.433594 C 830.234375 35.433594 832.246094 37.449219 832.246094 39.464844 Z M 832.246094 39.464844 " fill-opacity="1" fill-rule="nonzero"></path><path fill="#f7980f" d="M 895.203125 119.257812 C 897.503906 119.257812 898.941406 120.984375 898.941406 123.289062 C 898.941406 125.59375 897.214844 127.035156 894.917969 127.035156 C 892.617188 127.035156 891.179688 125.304688 891.179688 123 C 891.46875 120.984375 892.902344 119.257812 895.203125 119.257812 Z M 895.203125 119.257812 " fill-opacity="1" fill-rule="nonzero"></path><path fill="#f7980f" d="M 807.808594 23.046875 C 807.808594 20.742188 809.535156 19.015625 811.546875 19.015625 C 813.847656 19.015625 815.285156 20.742188 815.285156 22.757812 C 815.285156 25.0625 813.558594 26.792969 811.546875 26.792969 C 809.535156 26.792969 807.808594 25.351562 807.808594 23.046875 Z M 807.808594 23.046875 " fill-opacity="1" fill-rule="nonzero"></path><path fill="#f7980f" d="M 874.503906 106.582031 C 874.503906 104.566406 876.230469 102.835938 878.242188 102.835938 C 880.253906 102.835938 881.980469 104.566406 881.980469 106.582031 C 881.980469 108.597656 880.253906 110.328125 878.242188 110.328125 C 876.230469 110.613281 874.503906 108.886719 874.503906 106.582031 Z M 874.503906 106.582031 " fill-opacity="1" fill-rule="nonzero"></path><g clip-path="url(#78af5de8ea)"><path fill="#f7980f" d="M 929.988281 139.996094 C 929.988281 141.148438 929.988281 142.011719 929.988281 143.164062 C 929.988281 144.027344 929.414062 144.605469 928.550781 144.605469 C 926.253906 144.894531 923.953125 142.589844 923.953125 139.996094 C 923.953125 137.402344 926.253906 135.386719 928.550781 135.386719 C 929.414062 135.386719 929.988281 135.675781 929.988281 136.828125 C 929.988281 137.980469 929.988281 139.132812 929.988281 139.996094 Z M 929.988281 139.996094 " fill-opacity="1" fill-rule="nonzero"></path></g><path fill="#f7980f" d="M 791.136719 6.339844 C 791.136719 4.324219 792.859375 2.59375 794.875 2.59375 C 796.886719 2.59375 798.609375 4.324219 798.609375 6.339844 C 798.609375 8.355469 796.886719 10.085938 794.875 10.085938 C 792.859375 10.085938 791.136719 8.066406 791.136719 6.339844 Z M 791.136719 6.339844 " fill-opacity="1" fill-rule="nonzero"></path><path fill="#f7980f" d="M 857.832031 89.875 C 857.832031 87.859375 859.269531 86.128906 861.28125 86.128906 C 863.582031 86.128906 865.019531 87.570312 865.019531 89.875 C 865.019531 91.890625 863.582031 93.621094 861.28125 93.621094 C 859.554688 93.621094 858.117188 91.890625 857.832031 89.875 Z M 857.832031 89.875 " fill-opacity="1" fill-rule="nonzero"></path><path fill="#f7980f" d="M 845.183594 69.710938 C 847.195312 69.710938 848.632812 71.4375 848.632812 73.457031 C 848.632812 75.472656 846.90625 76.914062 844.894531 76.914062 C 842.882812 76.914062 841.445312 75.183594 841.445312 73.167969 C 841.445312 71.152344 843.171875 69.710938 845.183594 69.710938 Z M 845.183594 69.710938 " fill-opacity="1" fill-rule="nonzero"></path><path fill="#f7980f" d="M 911.589844 160.449219 C 909.578125 160.449219 908.140625 158.71875 908.140625 156.703125 C 908.140625 154.6875 909.867188 153.246094 911.878906 153.246094 C 913.890625 153.246094 915.328125 154.976562 915.328125 156.992188 C 915.328125 159.007812 913.601562 160.449219 911.589844 160.449219 Z M 911.589844 160.449219 " fill-opacity="1" fill-rule="nonzero"></path><g clip-path="url(#3090ca590c)"><path fill="#f7980f" d="M 929.988281 156.992188 C 929.988281 157.855469 929.988281 158.71875 929.988281 159.871094 C 929.988281 160.734375 929.414062 161.3125 928.550781 161.3125 C 926.539062 161.3125 924.527344 159.582031 924.527344 157.28125 C 924.527344 154.976562 926.539062 153.246094 928.550781 153.246094 C 929.414062 153.246094 929.988281 153.824219 929.988281 154.6875 C 929.988281 155.261719 929.988281 156.128906 929.988281 156.992188 Z M 929.988281 156.992188 " fill-opacity="1" fill-rule="nonzero"></path></g><path fill="#f7980f" d="M 824.769531 56.460938 C 824.769531 54.445312 826.207031 53.003906 828.222656 53.003906 C 830.234375 53.003906 831.671875 54.730469 831.671875 56.460938 C 831.671875 58.1875 830.234375 59.917969 828.222656 59.917969 C 826.496094 59.917969 824.769531 58.476562 824.769531 56.460938 Z M 824.769531 56.460938 " fill-opacity="1" fill-rule="nonzero"></path><path fill="#f7980f" d="M 891.753906 139.996094 C 891.753906 137.980469 893.191406 136.539062 895.203125 136.539062 C 897.214844 136.539062 898.652344 137.980469 898.367188 139.996094 C 898.367188 142.011719 896.929688 143.164062 894.917969 143.164062 C 893.191406 143.453125 891.753906 142.011719 891.753906 139.996094 Z M 891.753906 139.996094 " fill-opacity="1" fill-rule="nonzero"></path><path fill="#f7980f" d="M 808.386719 39.753906 C 808.386719 37.738281 809.824219 36.296875 811.835938 36.296875 C 813.847656 36.296875 815.285156 37.738281 815.285156 39.753906 C 815.285156 41.769531 813.847656 43.210938 811.835938 43.210938 C 809.824219 42.921875 808.386719 41.480469 808.386719 39.753906 Z M 808.386719 39.753906 " fill-opacity="1" fill-rule="nonzero"></path><path fill="#f7980f" d="M 875.082031 123.289062 C 875.082031 121.5625 876.519531 119.832031 878.53125 120.121094 C 880.253906 120.121094 881.691406 121.5625 881.691406 123.289062 C 881.691406 125.015625 880.253906 126.746094 878.242188 126.457031 C 876.519531 126.457031 875.082031 125.015625 875.082031 123.289062 Z M 875.082031 123.289062 " fill-opacity="1" fill-rule="nonzero"></path><path fill="#f7980f" d="M 791.710938 23.046875 C 791.710938 21.316406 793.4375 19.878906 794.875 19.878906 C 796.597656 19.878906 798.035156 21.605469 798.035156 23.335938 C 798.035156 25.0625 796.597656 26.503906 794.875 26.503906 C 793.4375 26.214844 791.710938 24.773438 791.710938 23.046875 Z M 791.710938 23.046875 " fill-opacity="1" fill-rule="nonzero"></path><g clip-path="url(#a4ea5b873f)"><path fill="#f7980f" d="M 929.988281 173.699219 C 929.988281 174.273438 929.988281 174.851562 929.988281 175.425781 C 929.988281 176.867188 929.414062 177.441406 927.976562 177.15625 C 926.253906 176.867188 924.816406 175.140625 924.816406 173.410156 C 924.816406 171.683594 926.253906 170.242188 927.976562 169.953125 C 929.414062 169.953125 929.703125 170.242188 929.703125 171.394531 C 929.988281 172.257812 929.988281 172.835938 929.988281 173.699219 Z M 929.988281 173.699219 " fill-opacity="1" fill-rule="nonzero"></path></g><path fill="#f7980f" d="M 861.570312 109.75 C 859.84375 109.75 858.40625 108.597656 858.40625 106.582031 C 858.40625 104.855469 859.554688 103.414062 861.570312 103.414062 C 863.292969 103.414062 864.730469 104.855469 864.730469 106.582031 C 864.730469 108.597656 863.292969 109.75 861.570312 109.75 Z M 861.570312 109.75 " fill-opacity="1" fill-rule="nonzero"></path><path fill="#f7980f" d="M 775.039062 6.339844 C 775.039062 4.609375 776.472656 3.171875 777.910156 3.171875 C 779.636719 3.171875 781.074219 4.609375 781.074219 6.339844 C 781.074219 8.066406 779.636719 9.21875 778.199219 9.507812 C 776.472656 9.21875 775.039062 7.78125 775.039062 6.339844 Z M 775.039062 6.339844 " fill-opacity="1" fill-rule="nonzero"></path><path fill="#f7980f" d="M 845.183594 92.753906 C 843.457031 92.753906 842.308594 91.316406 842.019531 89.875 C 842.019531 88.148438 843.457031 86.707031 845.183594 86.707031 C 846.90625 86.707031 848.058594 88.148438 848.058594 89.875 C 848.058594 91.601562 846.621094 92.753906 845.183594 92.753906 Z M 845.183594 92.753906 " fill-opacity="1" fill-rule="nonzero"></path><path fill="#f7980f" d="M 825.347656 73.167969 C 825.347656 71.4375 826.496094 70.289062 828.222656 70.289062 C 829.945312 70.289062 831.097656 71.4375 831.097656 73.167969 C 831.097656 74.894531 829.945312 76.046875 828.222656 76.046875 C 826.496094 76.046875 825.347656 74.894531 825.347656 73.167969 Z M 825.347656 73.167969 " fill-opacity="1" fill-rule="nonzero"></path><path fill="#f7980f" d="M 808.960938 56.460938 C 808.960938 55.019531 810.109375 53.867188 811.546875 53.582031 C 812.984375 53.582031 814.132812 54.730469 814.421875 56.171875 C 814.421875 57.613281 813.273438 58.765625 811.835938 59.054688 C 810.398438 59.054688 808.960938 57.902344 808.960938 56.460938 Z M 808.960938 56.460938 " fill-opacity="1" fill-rule="nonzero"></path><path fill="#f7980f" d="M 794.875 42.058594 C 793.4375 42.058594 792.285156 40.90625 792.285156 39.464844 C 792.285156 38.023438 793.4375 36.871094 794.875 36.871094 C 796.3125 36.871094 797.460938 38.023438 797.460938 39.464844 C 797.460938 41.195312 796.3125 42.058594 794.875 42.058594 Z M 794.875 42.058594 " fill-opacity="1" fill-rule="nonzero"></path><path fill="#f7980f" d="M 778.199219 25.351562 C 776.761719 25.351562 775.898438 24.488281 775.898438 23.046875 C 775.898438 21.605469 776.761719 20.742188 778.199219 20.742188 C 779.636719 20.742188 780.5 21.605469 780.5 23.046875 C 780.5 24.488281 779.636719 25.351562 778.199219 25.351562 Z M 778.199219 25.351562 " fill-opacity="1" fill-rule="nonzero"></path><path fill="#f7980f" d="M 761.527344 4.035156 C 762.675781 4.035156 763.824219 4.898438 763.824219 6.339844 C 763.824219 7.492188 762.675781 8.644531 761.527344 8.355469 C 760.375 8.355469 759.511719 7.492188 759.511719 6.339844 C 759.511719 5.1875 760.375 4.035156 761.527344 4.035156 Z M 761.527344 4.035156 " fill-opacity="1" fill-rule="nonzero"></path><path fill="#f7980f" d="M 811.835938 71.152344 C 812.984375 71.152344 813.847656 72.015625 813.847656 73.167969 C 813.847656 74.03125 812.984375 75.472656 812.410156 75.183594 C 811.546875 74.609375 810.683594 73.742188 810.109375 72.878906 C 809.535156 72.304688 810.683594 71.152344 811.835938 71.152344 Z M 811.835938 71.152344 " fill-opacity="1" fill-rule="nonzero"></path><path fill="#f7980f" d="M 794.875 54.730469 C 796.023438 54.730469 796.597656 55.308594 796.597656 56.460938 C 796.597656 57.613281 796.023438 58.1875 794.875 58.1875 C 793.722656 58.1875 793.148438 57.324219 793.148438 56.460938 C 793.148438 55.308594 794.011719 54.730469 794.875 54.730469 Z M 794.875 54.730469 " fill-opacity="1" fill-rule="nonzero"></path><path fill="#f7980f" d="M 827.933594 87.570312 C 829.945312 87.570312 831.097656 89.296875 830.519531 90.738281 C 830.234375 91.316406 829.945312 91.601562 829.371094 91.027344 C 828.796875 90.449219 828.222656 90.164062 827.644531 89.585938 C 827.359375 89.296875 827.070312 88.722656 826.785156 88.433594 C 827.359375 87.859375 827.644531 87.859375 827.933594 87.570312 Z M 827.933594 87.570312 " fill-opacity="1" fill-rule="nonzero"></path><path fill="#f7980f" d="M 778.199219 41.195312 C 777.335938 41.195312 776.761719 40.617188 776.761719 39.753906 C 776.761719 38.890625 777.335938 38.3125 778.199219 38.3125 C 779.0625 38.3125 779.636719 38.890625 779.636719 39.753906 C 779.636719 40.617188 779.0625 40.90625 778.199219 41.195312 Z M 778.199219 41.195312 " fill-opacity="1" fill-rule="nonzero"></path><path fill="#f7980f" d="M 847.480469 107.445312 C 846.332031 106.292969 845.183594 105.429688 844.320312 104.566406 C 845.183594 103.988281 846.042969 104.277344 846.621094 104.566406 C 847.195312 105.140625 847.769531 106.003906 847.480469 107.445312 Z M 847.480469 107.445312 " fill-opacity="1" fill-rule="nonzero"></path><path fill="#f7980f" d="M 761.527344 24.773438 C 760.949219 23.910156 760.375 23.621094 760.375 23.046875 C 760.375 22.757812 760.949219 22.183594 761.527344 21.894531 C 761.8125 22.183594 762.675781 22.757812 762.675781 23.046875 C 762.675781 23.335938 762.101562 23.910156 761.527344 24.773438 Z M 761.527344 24.773438 " fill-opacity="1" fill-rule="nonzero"></path><g clip-path="url(#4df5cd132f)"><path fill="#f7980f" d="M 744.851562 4.898438 C 745.425781 5.476562 745.714844 5.761719 745.714844 6.050781 C 745.714844 6.339844 745.140625 6.914062 744.851562 6.914062 C 744.5625 6.914062 743.988281 6.339844 743.988281 6.050781 C 743.988281 6.050781 744.277344 5.476562 744.851562 4.898438 Z M 744.851562 4.898438 " fill-opacity="1" fill-rule="nonzero"></path></g><path fill="#f7980f" d="M 863.867188 122.425781 C 863.292969 121.847656 862.429688 121.273438 861.855469 120.695312 C 861.855469 120.695312 862.144531 120.410156 862.144531 120.410156 C 862.71875 120.984375 863.582031 121.5625 864.15625 122.136719 C 864.15625 122.136719 863.867188 122.425781 863.867188 122.425781 Z M 863.867188 122.425781 " fill-opacity="1" fill-rule="nonzero"></path></svg>