<svg width="21" height="18" viewBox="0 0 21 18" fill="none" xmlns="http://www.w3.org/2000/svg">
<path d="M4.86698 17.4621C3.56498 17.4621 2.53598 16.9791 1.77998 16.0131C1.06598 15.0471 0.708984 13.8921 0.708984 12.5481C0.708984 10.0701 1.25498 7.88612 2.34698 5.99612C3.48098 4.10612 5.34998 2.30013 7.95398 0.578125L9.08799 2.09012C7.70198 3.01412 6.48398 4.14813 5.43398 5.49213C4.42598 6.79412 3.92198 8.28512 3.92198 9.96512L4.86698 9.77612C6.08498 9.77612 7.02999 10.1331 7.70199 10.8471C8.37398 11.5191 8.70998 12.4431 8.70998 13.6191C8.70998 14.7951 8.37398 15.7401 7.70199 16.4541C7.02999 17.1261 6.08498 17.4621 4.86698 17.4621ZM16.333 17.4621C15.031 17.4621 14.002 16.9791 13.246 16.0131C12.532 15.0471 12.175 13.8921 12.175 12.5481C12.175 10.0701 12.721 7.88612 13.813 5.99612C14.947 4.10612 16.816 2.30013 19.42 0.578125L20.554 2.09012C19.168 3.01412 17.95 4.14813 16.9 5.49213C15.892 6.79412 15.388 8.28512 15.388 9.96512L16.333 9.77612C17.551 9.77612 18.496 10.1331 19.168 10.8471C19.84 11.5191 20.176 12.4431 20.176 13.6191C20.176 14.7951 19.84 15.7401 19.168 16.4541C18.496 17.1261 17.551 17.4621 16.333 17.4621Z" fill="#47BD89"/>
</svg>
