<svg width="44" height="44" viewBox="0 0 44 44" fill="none" xmlns="http://www.w3.org/2000/svg">
<path d="M23.3593 2.09476L28.8761 13.9157C29.1245 14.4478 29.5522 14.8755 30.0843 15.1239L41.9052 20.6407C43.0594 21.1794 43.0594 22.8206 41.9052 23.3593L30.0843 28.8761C29.5522 29.1245 29.1245 29.5522 28.8761 30.0843L23.3593 41.9052C22.8206 43.0594 21.1794 43.0594 20.6407 41.9052L15.1239 30.0843C14.8755 29.5522 14.4478 29.1245 13.9157 28.8761L2.09476 23.3593C0.940579 22.8206 0.940579 21.1794 2.09476 20.6407L13.9157 15.1239C14.4478 14.8755 14.8755 14.4478 15.1239 13.9157L20.6407 2.09476C21.1794 0.940579 22.8206 0.940579 23.3593 2.09476Z" stroke="black"/>
</svg>
