<svg width="201" height="132" viewBox="0 0 201 132" fill="none" xmlns="http://www.w3.org/2000/svg">
<path d="M20.8398 116L20.1579 116.731L20.1579 116.731L20.8398 116ZM120.183 126.733L119.827 127.667L119.827 127.667L120.183 126.733ZM200.051 105.445C200.067 104.893 199.632 104.433 199.08 104.417L190.084 104.162C189.532 104.147 189.071 104.582 189.056 105.134C189.04 105.686 189.475 106.146 190.027 106.162L198.024 106.388L197.798 114.385C197.782 114.937 198.217 115.397 198.769 115.413C199.321 115.428 199.781 114.993 199.797 114.441L200.051 105.445ZM20.2161 0.218084C14.5504 4.73503 9.90705 12.5891 6.56274 22.1287C3.21012 31.692 1.12484 43.0571 0.650546 54.7211C-0.295551 77.9876 5.16466 102.754 20.1579 116.731L21.5217 115.269C7.16184 101.881 1.71188 77.8456 2.64889 54.8023C3.11615 43.3114 5.17076 32.1447 8.45012 22.7903C11.7378 13.4123 16.2185 5.96298 21.4629 1.78192L20.2161 0.218084ZM20.1579 116.731C32.0379 127.807 45.2271 131.427 58.0806 130.33C70.8982 129.237 83.3279 123.46 93.7935 115.839C104.26 108.217 112.835 98.6975 117.93 90.0128C120.476 85.6737 122.181 81.4955 122.792 77.8322C123.402 74.1785 122.943 70.8886 120.946 68.5329L119.42 69.8262C120.887 71.5561 121.379 74.1528 120.82 77.5029C120.262 80.8433 118.678 84.786 116.205 89.0008C111.263 97.4239 102.885 106.744 92.6162 114.222C82.3467 121.701 70.2591 127.284 57.9105 128.338C45.5978 129.388 32.9721 125.943 21.5217 115.269L20.1579 116.731ZM120.946 68.5329C119.057 66.3051 116.854 65.2532 114.523 65.3346C112.238 65.4144 110.015 66.5787 108.02 68.3891C104.036 72.0053 100.63 78.4885 98.9574 85.8783C97.2807 93.2878 97.3136 101.751 100.37 109.369C103.439 117.019 109.532 123.749 119.827 127.667L120.539 125.798C110.761 122.077 105.086 115.752 102.226 108.625C99.3545 101.467 99.2986 93.4318 100.908 86.3198C102.522 79.1881 105.777 73.1261 109.364 69.8701C111.156 68.2444 112.946 67.3909 114.593 67.3334C116.196 67.2774 117.845 67.9685 119.42 69.8262L120.946 68.5329ZM119.827 127.667C136.188 133.893 152.944 131.552 167.174 126.167C181.401 120.783 193.2 112.322 199.739 106.143L198.365 104.69C191.996 110.709 180.418 119.016 166.466 124.296C152.518 129.575 136.294 131.793 120.539 125.798L119.827 127.667Z" fill="#8A8A8A"/>
</svg>
